<?xml version="1.0" standalone="no"?><!DOCTYPE svg PUBLIC "-//W3C//DTD SVG 1.1//EN" "http://www.w3.org/Graphics/SVG/1.1/DTD/svg11.dtd"><svg t="1657541111977" class="icon" viewBox="0 0 1024 1024" version="1.1" xmlns="http://www.w3.org/2000/svg" p-id="9600" xmlns:xlink="http://www.w3.org/1999/xlink" width="128" height="128"><defs><style type="text/css"></style></defs><path d="M283.84768 275.52256h473.088c37.376 0 67.584 30.208 67.584 67.584v439.296c0 37.376-30.208 67.584-67.584 67.584h-473.088c-37.376 0-67.584-30.208-67.584-67.584v-439.296c0-37.376 30.208-67.584 67.584-67.584z" fill="#CAE4FF" p-id="9601"></path><path d="M253.9008 716.1856c-15.872 0-28.672-12.8-28.672-28.16 0-7.68 3.072-14.848 8.192-20.48l175.616-175.616c11.264-11.264 29.184-11.264 40.448 0l103.424 103.424 125.44-125.44-49.664-49.664 152.064-25.088-10.752 166.912-51.2-51.2-143.36 142.848c-0.512 1.024-1.536 2.048-2.56 2.56-11.264 11.264-29.184 11.264-40.448 0l-103.424-103.424-155.648 155.648c-4.608 4.608-12.288 7.68-19.456 7.68z" fill="#0972E7" p-id="9602"></path><path d="M163.7888 983.4496c-37.376 0-67.072-30.208-67.584-67.584V208.2816c0-37.376 30.208-67.072 67.584-67.584h95.744v-81.92c0-15.872 12.8-28.672 28.672-28.16 15.872 0 28.16 12.8 28.16 28.16v81.92h172.544v-81.92c0-15.872 12.8-28.672 28.16-28.672 15.872 0 28.672 12.8 28.672 28.16v81.92h173.056v-81.92c0-15.872 12.8-28.672 28.16-28.672 15.872 0 28.672 12.8 28.672 28.16v81.92h95.744c37.376 0 67.072 30.208 67.584 67.584v708.096c0 37.376-30.208 67.072-67.584 67.584l-707.584 0.512z m704-71.168V212.3776H167.8848v699.904h699.904z" fill="#0972E7" p-id="9603"></path></svg>