<?xml version="1.0" standalone="no"?><!DOCTYPE svg PUBLIC "-//W3C//DTD SVG 1.1//EN" "http://www.w3.org/Graphics/SVG/1.1/DTD/svg11.dtd"><svg t="1660652710270" class="icon" viewBox="0 0 1024 1024" version="1.1" xmlns="http://www.w3.org/2000/svg" p-id="2552" xmlns:xlink="http://www.w3.org/1999/xlink" width="128" height="128"><defs><style type="text/css"></style></defs><path d="M894.220022 382.785724c-1.740622 7.525629-5.887397 18.430111-11.672403 31.638358h0.153584l-0.665532 1.279868c-34.095705 76.638545-123.12338 226.946338-123.12338 226.946338s-0.10239-0.358363-0.409558-0.921505l-26.058129 47.559925h125.427144L618.229112 1024l54.368827-227.663065H573.945651l34.300484-150.512572c-27.798751 7.116071-60.563392 16.689489-99.31782 29.846541 0 0-52.525816 32.355084-151.382883-62.15043 0 0-66.655568-61.740872-28.00353-77.048102 16.48471-6.501734 79.761424-14.846478 129.676308-21.911355 67.3211-9.624613 108.737654-14.641699 108.737655-14.641699s-207.645916 3.327659-256.895269-4.914696C261.811244 486.864656 199.200062 400.447914 185.991816 324.628486c0 0-20.631485-41.723723 44.232266-22.013744 64.812557 19.812369 333.277839 76.843324 333.277839 76.843324S214.251319 266.983194 191.060096 239.594002C167.868873 212.153614 122.663907 89.84935 128.551303 14.695454c0 0 2.559738-18.737279 20.836265-13.720194 0 0 258.072748 123.891301 434.541059 191.724348 176.621896 67.781852 330.154959 102.287116 310.291395 190.086116z" fill="#0984e3" p-id="2553"></path></svg>