<?xml version="1.0" standalone="no"?><!DOCTYPE svg PUBLIC "-//W3C//DTD SVG 1.1//EN" "http://www.w3.org/Graphics/SVG/1.1/DTD/svg11.dtd"><svg t="1658055866805" class="icon" viewBox="0 0 1024 1024" version="1.1" xmlns="http://www.w3.org/2000/svg" p-id="3891" xmlns:xlink="http://www.w3.org/1999/xlink" width="48" height="48"><defs><style type="text/css"></style></defs><path d="M512 1013.76c-17.408 0-34.816-4.096-50.176-12.8l-358.4-200.704C71.168 781.824 51.2 747.52 51.2 710.656V313.344c0-36.864 19.968-71.168 52.224-89.088l358.4-200.704c30.72-17.408 69.12-17.408 99.84 0l358.4 200.704C952.832 242.176 972.8 276.48 972.8 313.344v397.824c0 36.864-19.968 71.168-52.224 89.088l-358.4 200.704c-15.36 8.704-32.768 12.8-50.176 12.8z m0-956.416c-9.216 0-18.432 2.56-27.136 7.168l-358.4 200.704c-17.408 9.728-28.16 28.16-28.16 48.128v397.824c0 19.968 10.752 38.4 28.16 48.128l358.4 200.704c16.384 9.216 37.376 9.216 53.76 0l358.4-200.704c17.408-9.728 28.16-28.16 28.16-48.128V313.344c0-19.968-10.752-38.4-28.16-48.128l-358.4-200.704c-8.192-4.608-17.408-7.168-26.624-7.168z" fill="#333333" p-id="3892"></path><path d="M824.832 700.416l-301.568 168.96c-7.168 4.096-15.872 4.096-22.528 0l-301.568-168.96c-7.168-4.096-11.776-11.776-11.776-19.968V343.552c0-8.192 4.608-15.872 11.776-19.968l301.568-168.96c7.168-4.096 15.872-4.096 22.528 0l301.568 168.96c7.168 4.096 11.776 11.776 11.776 19.968v336.896c0 8.192-4.608 15.872-11.776 19.968z" fill="#D7D7FF" p-id="3893"></path><path d="M723.968 644.096l-200.704 112.128c-7.168 4.096-15.872 4.096-22.528 0l-200.704-112.128c-7.168-4.096-11.776-11.776-11.776-19.968V400.384c0-8.192 4.608-15.872 11.776-19.968l200.704-112.128c7.168-4.096 15.872-4.096 22.528 0l200.704 112.128c7.168 4.096 11.776 11.776 11.776 19.968v223.744c0 8.192-4.608 15.872-11.776 19.968z" fill="#9C9CFF" p-id="3894"></path><path d="M620.032 580.096l-101.888 56.832c-4.096 2.048-8.704 2.048-12.8 0l-101.888-56.832c-4.096-2.56-6.656-6.656-6.656-11.776V455.168c0-4.608 2.56-9.216 6.656-11.776l101.888-56.832c4.096-2.048 8.704-2.048 12.8 0l101.888 56.832c4.096 2.56 6.656 6.656 6.656 11.776V568.32c0 5.12-2.56 9.728-6.656 11.776z" fill="#6462F3" p-id="3895"></path><path d="M512 386.048c-8.704 0-15.36-6.656-15.872-15.36L492.544 215.04c0-8.704 6.656-15.872 15.36-15.872 8.704-1.024 15.872 6.656 15.872 15.36l3.584 155.648c1.024 8.704-6.144 15.872-15.36 15.872 0.512 0 0.512 0 0 0z" fill="#333333" p-id="3896"></path><path d="M471.552 269.824c-4.608 0-9.216-1.536-13.824-4.096-10.752-7.68-13.312-22.016-5.632-32.768L489.984 179.2c7.68-10.752 22.016-13.312 32.768-5.632 10.752 7.68 13.312 22.016 5.632 32.768l-37.888 53.76c-4.096 6.144-11.264 9.728-18.944 9.728z" fill="#333333" p-id="3897"></path><path d="M546.304 271.36c-7.68 0-15.36-3.584-19.456-10.752l-36.864-55.296c-7.168-10.752-4.096-25.6 6.656-32.768 10.752-7.168 25.6-4.096 32.768 6.656l36.864 55.296c7.168 10.752 4.096 25.6-6.656 32.768-4.096 2.56-8.704 4.096-13.312 4.096z" fill="#333333" p-id="3898"></path><path d="M785.408 667.136c-2.56 0-5.12-0.512-7.68-2.048l-135.168-76.8c-7.68-4.096-10.24-13.824-6.144-21.504s13.824-10.24 21.504-6.144l135.168 76.8c7.68 4.096 10.24 13.824 6.144 21.504-2.56 5.632-8.192 8.192-13.824 8.192z" fill="#333333" p-id="3899"></path><path d="M804.352 687.616c-9.216 0-17.92-5.12-21.504-13.824l-26.624-59.904c-5.12-11.776 0-26.112 12.288-31.232 11.776-5.12 26.112 0 31.232 12.288l26.624 59.904c5.12 11.776 0 26.112-12.288 31.232-3.072 1.024-6.144 1.536-9.728 1.536z" fill="#333333" p-id="3900"></path><path d="M738.304 690.688c-12.288 0-23.04-9.728-23.552-22.528-0.512-12.8 9.216-24.064 22.528-24.576l66.048-3.072c13.312-0.512 24.064 9.216 24.576 22.528 0.512 12.8-9.216 24.064-22.528 24.576l-66.048 3.072h-1.024z" fill="#333333" p-id="3901"></path><path d="M239.616 675.328c-5.632 0-11.264-3.072-13.824-8.192-4.096-7.68-1.024-17.408 6.144-21.504L368.64 571.904c7.68-4.096 17.408-1.024 21.504 6.144 4.096 7.68 1.024 17.408-6.144 21.504l-136.704 73.728c-2.56 1.536-5.12 2.048-7.68 2.048z" fill="#333333" p-id="3902"></path><path d="M284.16 701.952h-3.584l-65.024-9.216c-12.8-2.048-22.016-13.824-19.968-26.624 2.048-12.8 13.824-22.016 26.624-19.968l65.024 9.216c12.8 2.048 22.016 13.824 19.968 26.624-1.536 11.776-11.776 19.968-23.04 19.968z" fill="#333333" p-id="3903"></path><path d="M219.136 692.736c-4.096 0-7.68-1.024-11.776-3.072-11.264-6.144-15.36-20.992-9.216-32.256l32.256-57.856c6.144-11.264 20.992-15.36 32.256-9.216s15.36 20.992 9.216 32.256l-32.256 57.856c-4.608 7.68-12.288 12.288-20.48 12.288z" fill="#333333" p-id="3904"></path></svg>