<?xml version="1.0" standalone="no"?><!DOCTYPE svg PUBLIC "-//W3C//DTD SVG 1.1//EN" "http://www.w3.org/Graphics/SVG/1.1/DTD/svg11.dtd"><svg t="1658054913639" class="icon" viewBox="0 0 1024 1024" version="1.1" xmlns="http://www.w3.org/2000/svg" p-id="2725" width="48" height="48" xmlns:xlink="http://www.w3.org/1999/xlink"><defs><style type="text/css"></style></defs><path d="M354.261125 1022.700723a452.144964 452.144964 0 0 1-84.414612-15.867729 386.455979 386.455979 0 0 1-125.576866-64.451985c-15.697108-12.156728-49.181429-45.641048-62.831088-62.831088C30.678889 815.609798 4.829847 746.039191 2.270536 666.359305a355.445659 355.445659 0 0 1 13.9909-110.988792c2.900553-9.768037 3.028518-10.877072 2.431346-22.607248a178.000088 178.000088 0 0 1 4.265518-47.603187c2.601966-10.407865 9.810693-26.019663 14.502763-31.650148l2.900553-3.412415-0.426552 18.512351c-0.511862 26.531525-0.469207 26.57418 7.97652 11.730176A357.791694 357.791694 0 0 1 121.278503 388.588738c8.275106-7.507313 15.739763-14.417453 16.550211-15.313211 0.810449-0.895759 3.838967-7.592623 6.782175-14.88666 8.829623-21.924765 16.720833-33.953528 25.294525-38.304356 7.464657-3.838967 14.246832-1.876828 15.825074 4.436139a36.512839 36.512839 0 0 1-0.298587 9.256175 31.01032 31.01032 0 0 0-0.554517 6.82483c0.213276 0 6.696864-3.36976 14.460108-7.464658 27.72587-14.801349 47.560532-23.289731 89.319958-38.048425 13.777625-4.905346 26.787456-9.597417 28.834905-10.493176 11.772831-4.948001 18.128454-21.583524 16.976764-44.318737a61.679398 61.679398 0 0 0-4.350829-21.540869 176.933709 176.933709 0 0 0-5.203933-13.521693c-2.132759-4.180208-1.834173-4.905346 1.620897-3.924278 9.938658 2.857897 21.839455 12.455314 29.304113 23.673628 4.350829 6.568899 11.644866 22.266007 11.68752 25.25187 0 2.38869 1.535587 1.279656 4.820036-3.583036 13.095142-19.365454 13.180452-41.37553 0.170621-63.470915-4.734726-8.104485-18.299074-21.455558-27.512594-27.171353-11.815486-7.251382-18.938902-9.384141-31.564838-9.256176-9.768037 0.08531-10.663796-0.08531-13.521693-2.431345-3.54038-2.985863-5.545174-9.341486-4.649416-14.630729 1.06638-6.057036 11.346279-25.593111 18.384385-34.977252 8.317761-11.090348 27.128698-29.176147 39.114805-37.707183 38.901529-27.64056 87.699061-44.361393 144.430458-49.480015 13.649659-1.279656 14.161522-1.364966 16.976763-4.393484 2.644621-2.815242 3.497725-3.113829 9.384141-3.113829 5.67314 0 7.251382 0.511862 13.607004 4.137553 6.696864 3.881622 7.379347 4.094898 10.19459 2.815242 2.132759-0.938414 5.630484-1.15169 11.943452-0.725138 7.208726 0.426552 9.384141 0.298586 11.260968-1.023724 3.284449-2.30338 7.294037-2.004794 13.223108 1.023724 2.857897 1.407621 11.260969 3.966932 18.682971 5.545174 34.934597 7.763244 63.001709 18.597661 89.703855 34.763976 4.734726 2.857897 8.786968 5.203933 9.000244 5.203933 0.383897 0-0.127966-3.753656-1.364966-10.493176L699.256264 38.389667l6.483588 3.838966c8.531037 5.118622 16.20897 13.095142 20.431833 21.156972 2.943208 5.67314 3.625691 6.398278 5.161278 5.417209 1.237-0.725138 2.729932-0.810449 4.69207-0.127966 2.30338 0.810449 3.966932 3.199139 8.531037 12.49797 3.156484 6.355623 6.057036 11.815486 6.398278 12.199383 0.426552 0.426552 3.583036-2.474001 7.123416-6.312968 7.507313-8.189796 14.374797-12.796556 23.460352-15.910384 8.531037-2.857897 13.649659-2.260725 17.488626 2.047449 3.838967 4.265519 3.838967 9.810693-0.170621 18.213764-7.677933 16.20897-11.090348 31.052975-9.810692 42.399254l0.725138 5.843761 4.60676-3.241794c4.265519-2.985863 5.203933-3.241794 13.009831-3.241794 8.189796 0 17.062074 2.474001 17.062074 4.77738a35.70239 35.70239 0 0 1-4.820036 6.782175c-7.848554 9.640072-9.810693 15.05728-9.682727 26.702146 0.127966 10.706452 0.597173 13.137797 7.549968 37.024701 2.516656 8.744313 5.459864 20.175903 6.483588 25.379835a37.110011 37.110011 0 0 0 2.559311 9.469451c1.706207 0 13.351073-9.640072 20.389179-16.806143 4.222863-4.265519 7.97652-7.763244 8.317761-7.763244 1.407621 0 3.881622 8.104485 4.990657 16.03835 1.279656 9.384141 0.298586 18.42704-3.113829 29.517388-2.047449 6.654209-2.090104 7.251382-0.511862 10.535831 2.601966 5.459864 2.985863 11.346279 1.194345 18.938902-2.985863 12.881866-8.488382 21.754145-22.735213 36.598149l-7.336692 7.677934-1.194346 10.237244c-0.682483 5.67314-2.132759 14.161522-3.241794 18.853592a38.389667 38.389667 0 0 0-1.492931 9.12821c0.298586 0.298586 1.237-0.08531 2.090104-0.810449 2.260725-1.876828 9.21352-0.810449 16.12366 2.474001 14.204177 6.739519 41.46084 31.607492 52.124637 47.603187l5.75845 8.573692 9.170864 2.30338c37.707184 9.554762 67.053951 36.93939 83.262922 77.760403 5.118622 12.796556 8.701658 29.133492 11.260969 50.58905 0.810449 6.568899 2.559311 12.370004 7.677933 25.123904 3.625691 9.085554 7.166071 19.066868 7.805899 22.138041 1.791518 8.232451 0.767793 18.853592-2.559311 26.702146-1.578242 3.668346-3.711001 9.810693-4.820036 13.649659-3.881622 13.777625-10.194589 22.735214-20.773075 29.560044-3.412415 2.175414-8.701658 4.69207-11.815486 5.545174-5.84376 1.578242-25.550456 10.663796-25.593112 11.815486-0.042655 0.341241 1.364966 0.938414 3.113829 1.279656 9.384141 1.876828 21.711489 10.749107 24.825318 17.915177 0.639828 1.492931 3.113829 5.246588 5.502519 8.403072 9.085554 11.943452 11.303624 22.905835 8.019175 40.22384l-1.706208 9.085554 2.644622 3.241794c9.384141 11.559555 17.445971 26.531525 20.389178 38.048426 4.180208 16.166315 4.094898 31.863423-0.213276 55.579706l-1.876828 10.023969 3.412415 4.948001c6.568899 9.512106 7.848554 18.597661 4.52145 31.436872-8.275106 32.076699-32.673872 55.878293-66.670055 64.921192l-6.654209 1.748862v8.872279c0 6.82483-0.511862 9.981313-2.132759 13.521694a28.152422 28.152422 0 0 1-13.649659 13.607004c-9.554762 4.222863-23.801593-0.298586-30.797044-9.810693-3.497725-4.69207-3.796311-4.820036-8.872279-4.820036a34.849286 34.849286 0 0 1-9.640072-1.578242c-10.578486-3.711001-15.441177-10.962383-15.697108-23.332386l-0.170621-7.166071-6.654209-4.009588a101.689962 101.689962 0 0 1-24.014869-19.493419l-6.398278-7.038106 3.327105 6.611554c14.332142 28.451009-1.919483 59.290708-36.086287 68.418917-6.99545 1.919483-12.327349 2.260725-42.313944 2.985863-46.280876 1.109035-384.707116 0.938414-399.508465-0.213276z m576.100933-17.104729c4.308174-3.753656 6.099691-13.308418 3.412414-18.469695-2.474001-4.905346-5.971726-6.398278-16.379591-7.251382-11.815486-0.853104-15.099936-2.559311-15.099935-7.592623 0-6.526243 1.06638-6.82483 27.299318-7.166071 25.465146-0.341241 33.143079-1.578242 44.276083-7.251382 9.810693-4.948001 22.266007-20.389179 23.417696-29.090836l0.554518-4.052243-7.038106 2.004794c-26.659491 7.464657-62.575157 8.829623-88.850751 3.36976-28.365698-5.971726-54.598637-22.180696-63.854812-39.498702l-2.30338-4.308174-1.279656 2.985863a53.745533 53.745533 0 0 0-1.279655 14.246832c-0.08531 10.535831 0.127966 11.730176 3.113828 17.915178 6.185002 13.009832 19.621385 25.635766 35.915666 33.825562 8.531037 4.308174 8.744313 4.478794 8.189796 7.592623l-1.791518 10.322555c-1.578242 9.042899-0.682483 13.90559 3.45507 18.640316a22.010076 22.010076 0 0 0 17.232695 7.464657c4.009587 0 6.483588 0.597173 8.189795 1.919484 8.786968 6.82483 17.957833 8.616347 22.820525 4.393484z m-213.446548-7.848554c19.792006-2.857897 26.190284-2.943208 36.811425-0.597173 21.754145 4.820036 44.190772 0.981069 54.04412-9.29883 6.483588-6.739519 8.445727-17.488626 4.436139-24.10018-4.948001-8.104485-17.915178-13.649659-32.24732-13.649659-9.981313 0-15.142591 1.450276-32.588561 8.872278a160.980669 160.980669 0 0 1-16.081005 6.142347c-7.422002 1.492931-11.303624-2.644621-11.303624-11.900797 0-9.896003 2.772587-13.137797 23.886903-28.152422 18.213764-12.796556 29.048181-27.597905 31.735458-43.081737 1.194345-7.208726-0.127966-17.147384-2.601966-19.536075a67.480503 67.480503 0 0 0-12.58328-4.564105c-35.403804-10.407865-51.698085-23.929559-67.096606-55.792982a233.963691 233.963691 0 0 1-14.929315-38.773564 186.744401 186.744401 0 0 0-6.483588-18.555005c-11.5169-25.379835-39.541357-48.328325-71.788677-58.736191-13.649659-4.436139-22.308662-5.971726-44.062807-7.848554a627.884328 627.884328 0 0 1-24.057524-2.431345l-5.118622-0.767794 7.166071-3.668346c8.786968-4.436139 15.185246-6.526243 24.569387-7.891209 13.393728-2.004794 22.521938-2.346035 32.289975-1.279655 39.328081 4.436139 68.973435 24.654697 89.91713 61.338156 7.763244 13.649659 13.351073 27.597905 18.768282 47.006014 6.270312 22.436627 11.943452 33.782907 22.777869 45.214497 17.488626 18.555006 40.906323 26.872767 75.457023 26.872766 7.592623 0 17.062074-0.511862 20.986351-1.066379 16.12366-2.260725 32.844493-8.019175 45.214496-15.483832 13.564349-8.14714 26.190284-23.11911 30.285182-35.830356 1.237-3.838967 2.729932-7.038106 3.327104-7.038106 0.597173 0 4.436139 0.767793 8.531037 1.706208 6.99545 1.663552 8.019175 1.663552 16.464902 0 13.564349-2.559311 17.19004-2.30338 20.64511 1.364966 5.203933 5.545174 11.730176 6.568899 19.194833 2.985863a23.673628 23.673628 0 0 0 7.592623-6.398278c2.474001-3.412415 2.985863-5.033312 2.729932-8.829624-0.298586-4.564105-0.426552-4.69207-8.232451-9.810692a57.243259 57.243259 0 0 1-7.933864-5.630485 18.34173 18.34173 0 0 1 4.308173-3.412414c3.284449-2.132759 5.331898-2.729932 8.189796-2.474001 4.393484 0.383897 4.436139-0.170621 0.213276-8.403072a35.489114 35.489114 0 0 0-17.147385-16.891453c-14.374797-6.99545-30.669078-6.99545-48.840187 0-10.919727 4.265519-12.58328 4.308174-20.047937 1.023724-9.853348-4.350829-19.877316-5.886416-33.48432-5.118622-16.720833 1.023724-27.768526-0.725138-31.991389-5.033312l-3.113829-3.113828 13.436384-1.237001c20.901041-1.919483 26.958077-3.753656 45.470427-13.948245 11.43159-6.312967 18.256419-8.019175 35.403804-9.000244 24.740007-1.407621 36.470183-5.630484 43.081737-15.483833 2.346035-3.497725 3.54038-4.52145 4.60676-3.838966a27.128698 27.128698 0 0 0 33.185734-20.73042c0.682483-3.583036 0.511862-3.796311-10.151934-13.223108a108.045584 108.045584 0 0 1-10.877072-10.279899c0-0.426552 1.663552-2.132759 3.625691-3.924277 6.099691-5.331898 10.45052-4.436139 22.777869 4.60676 2.132759 1.578242 2.30338 1.578242 2.30338-0.213276 0-4.052243-2.516656-10.663796-9.725383-26.019663-8.488382-17.915178-9.170865-20.047937-10.791762-34.294769-5.118622-43.934841-28.79225-80.703611-65.774295-102.159169a88.082958 88.082958 0 0 0-9.0429-4.905347 27.811181 27.811181 0 0 0-3.966932 6.73952 52.465878 52.465878 0 0 1-7.166071 10.749106c-3.199139 3.327104-4.564105 4.052243-7.763244 4.052243-4.52145 0-7.677933-2.346035-7.677933-5.67314 0-1.279656 1.364966-5.246588 3.071173-8.829623 5.118622-11.047693 6.611554-18.768282 5.118623-27.512595-3.412415-20.389179-22.607248-43.337668-46.579463-55.878292-9.384141-4.862691-10.45052-4.69207-11.047693 1.32231-0.639828 6.91014 0.853104 20.901041 3.284449 30.285182 1.109035 4.350829 4.990657 14.758694 8.616348 23.076455 9.29883 21.327593 12.114073 30.711733 12.156728 40.095875a31.223596 31.223596 0 0 1-1.663553 11.559555 35.403804 35.403804 0 0 1-12.028762 13.649659c-3.54038 1.834173-7.464657 1.919483-6.696864 0.170621 5.417209-12.370004 7.208726-18.384385 7.635278-25.977008 0.597173-10.663796-0.853104-15.569143-9.981313-34.294769-9.12821-18.725626-11.687521-29.005526-11.133003-44.446703l0.426551-10.834417-2.474 4.905346a285.747086 285.747086 0 0 1-10.621141 17.445971c-13.009832 20.133247-17.19004 30.967665-17.19004 44.532013 0 12.540624 4.862691 30.02925 11.858141 42.655186 1.364966 2.474001 2.30338 4.69207 2.047449 4.990656a24.313456 24.313456 0 0 1-6.185002-4.948001c-5.715795-5.374553-13.862935-19.280144-13.862935-23.630973 0-2.900553-1.876828-2.346035-10.237244 2.985863-15.569143 10.023969-26.787456 20.175903-41.588806 37.749839-21.583524 25.678422-51.015602 44.787945-87.016578 56.646086-8.445727 2.772587-36.043632 10.151934-61.295501 16.464902-69.1014 17.147384-93.329545 25.678422-125.27828 44.105461-63.300295 36.427528-96.400719 85.310371-102.926962 152.065736-2.30338 23.886904 0.981069 60.101156 7.848554 86.035509 1.06638 3.881622-5.545174-4.777381-9.682727-12.796556-7.422002-14.204177-12.156728-31.735458-14.502763-53.745533-2.132759-19.66404 0.213276-58.864156 4.777381-79.850507l0.639828-2.985863-15.227901 0.639828c-37.792494 1.578242-69.01609 12.284693-94.566546 32.41794a104.547859 104.547859 0 0 0-10.877072 9.597417l-2.559312 3.071173 0.639828-2.985862c1.194345-5.417209 7.251382-17.232695 12.156728-23.673628 10.237244-13.521694 30.839699-26.446215 52.337912-32.887148 5.630484-1.706207 22.905835-5.929071 38.389667-9.384141 15.526487-3.412415 28.920216-6.483588 29.85863-6.739519 0.853104-0.255931 3.838967-4.60676 6.568898-9.640072 2.729932-5.033312 7.677933-12.924521 10.962383-17.488626 3.284449-4.649415 5.801105-8.573692 5.587829-8.786968a164.393084 164.393084 0 0 0-16.678177 2.132759c-8.957589 1.407621-28.749595 4.180208-43.934841 6.185002-30.669078 4.052243-47.944428 7.251382-63.982778 11.858141-49.480015 14.289487-78.058989 41.930047-92.945649 90.002441l-3.838966 12.455314 2.004793 5.843761c3.199139 9.512106 14.076211 30.711733 21.327593 41.46084 28.280388 42.228633 72.684436 76.480747 127.155107 98.064271 12.370004 4.862691 13.82028 5.75845 20.218558 12.071417 3.796311 3.711001 6.739519 6.91014 6.568899 7.080761-0.767793 0.810449-32.16201-7.422002-45.726359-11.943452a288.178432 288.178432 0 0 1-90.173062-48.882842 123.614727 123.614727 0 0 0-18.896247-12.114073 228.205241 228.205241 0 0 1-59.80257-44.062806 126.899176 126.899176 0 0 1-20.773075-28.664285l-4.393484-8.189795 6.270312 5.75845c13.649659 12.540624 33.39901 25.379835 43.167048 28.109767 2.21807 0.597173 2.132759 0.213276-1.876828-6.867485a239.423555 239.423555 0 0 1-15.526488-33.569631 68.333607 68.333607 0 0 0-12.028762-20.986351c-31.863423-41.418185-55.153155-83.006991-71.40478-127.539004l-4.990657-13.777625-0.853104 4.52145a232.641381 232.641381 0 0 0-1.066379 22.991145l-0.170621 18.42704 5.971726 16.422246c6.185002 16.891453 28.365698 76.694023 30.285182 81.68468 0.597173 1.535587 0.853104 2.815242 0.639827 2.815242-0.213276 0-3.881622-4.436139-8.104485-9.810692-9.768037-12.284693-20.64511-28.578974-22.607248-33.825562l-1.578242-4.009588 0.597173 3.583036a340.388379 340.388379 0 0 0 19.877316 67.096606c24.995939 58.693535 66.115537 110.178344 116.107414 145.326217 48.712222 34.252114 114.827759 58.309638 173.308018 63.044364 5.630484 0.426552 88.850751 0.895759 184.910229 0.981069 150.060942 0.08531 176.165915-0.08531 185.42209-1.450277z m71.873987-284.382121a117.557691 117.557691 0 0 1-32.41794-11.772831c-19.66404-11.5169-33.612286-31.650148-34.977252-50.503739-0.426552-6.611554-0.426552-6.654209 0.981069-3.113829 8.872279 22.564593 26.019663 40.735702 49.60798 52.593844 10.834417 5.459864 16.806143 7.677933 29.432078 10.962382l11.260969 2.900553-9.21352-0.085311a117.47238 117.47238 0 0 1-14.673384-0.981069z m112.225793-102.372445c-10.2799-2.474001-21.754145-11.644866-24.910628-20.047937a31.692803 31.692803 0 0 1 0.853104-20.431833l1.620897-2.985863 0.725138 4.094897c1.876828 10.237244 9.12821 19.024213 19.493419 23.630973 3.071173 1.364966 10.919727 3.412415 17.488626 4.564105 9.768037 1.706207 16.03835 3.54038 19.834662 5.801105 0.298586 0.170621 0.597173-4.436139 0.725138-10.194589 0.213276-10.109279 0.170621-10.407865-1.492932-7.933865-3.54038 5.203933-8.531037 9.21352-11.559555 9.21352-4.052243 0-21.88211-6.483588-26.787456-9.725382-6.099691-4.009587-8.019175-7.933864-8.019175-16.336936 0-5.971726-0.383897-7.507313-2.30338-9.554761l-2.30338-2.474001 4.862691-4.436139c8.104485-7.336692 13.009832-9.21352 24.313456-9.21352 10.962383 0 15.654453 1.706207 23.332386 8.23245 10.919727 9.384141 14.588073 32.289975 8.232451 51.356843l-2.346036 6.995451-18.938902 0.170621a187.085643 187.085643 0 0 1-22.820524-0.725139z m12.370004-36.256907c3.625691-1.834173 5.75845-5.84376 5.630484-10.578486-0.08531-2.943208-0.938414-4.478794-3.796311-7.123416-5.971726-5.502519-13.990901-3.924277-17.488626 3.412415-4.60676 9.725382 5.929071 19.365454 15.697108 14.332142z m-86.803302 366.322731a88.978717 88.978717 0 0 1-10.919728-25.550456c-3.412415-15.185246-0.341241-39.541357 6.483588-51.314188l2.559312-4.521449-8.531038 0.639828a215.835238 215.835238 0 0 1-13.479038 0.682483H797.789742v7.549967c0 15.099936-6.99545 33.526976-18.000489 47.261946l-5.715794 7.166071 10.45052 0.725138c5.715795 0.383897 13.479039 1.620897 17.27535 2.772587 7.677933 2.346035 17.232695 8.189796 22.564593 13.777625 4.265519 4.478794 5.033312 4.777381 2.175414 0.810448z m140.42087-35.830355a34.422735 34.422735 0 0 0 17.787212-15.995695c3.668346-7.464657 7.635278-27.214008 8.360416-41.631461 0.469207-9.170865 0.213276-13.649659-1.15169-19.962626-1.706207-7.97652-7.848554-22.138041-11.644865-26.915422l-1.919484-2.431346-5.033311 3.583036c-11.090348 7.933864-19.919972 9.170865-31.138286 4.265518-5.459864-2.346035-8.531037-2.985863-16.976764-3.327104l-10.36521-0.426552-3.412414 5.971726a91.708648 91.708648 0 0 1-43.209703 39.328081l-7.848554 3.583035-0.725138 5.459864c-2.900553 22.393972 12.071417 37.835149 44.873255 46.238221 17.147384 4.393484 22.863179 5.033312 40.735702 4.734725 13.564349-0.213276 16.720833-0.554517 21.668834-2.516655z m-823.714284-158.67729c9.384141-45.470428 43.849531-75.883575 102.372445-90.428993 14.630729-3.625691 38.688253-8.360416 82.452473-16.29428 57.413879-10.36521 75.115781-15.867729 96.272753-29.986596l12.796556-8.531037-54.001465-0.298586c-66.200848-0.383897-74.85985 0.426552-100.666237 8.957589-16.336936 5.459864-32.375286 12.625935-76.694023 34.46539-21.071662 10.407865-38.517632 18.725626-38.730908 18.51235-0.383897-0.426552 15.953039-14.716039 24.313455-21.242282 27.384629-21.583524 72.215229-46.494152 100.879513-56.091569 48.968153-16.379591 86.590026-19.536075 165.971327-13.862935l37.963114 2.687277 14.80135-3.668346c14.502763-3.625691 29.346767-6.440933 57.328569-10.962383a183.843849 183.843849 0 0 0 14.246832-2.601966c0.213276-0.213276-0.469207-0.682483-1.535587-1.06638a64.068088 64.068088 0 0 1-15.526487-7.720588 42.484565 42.484565 0 0 1-6.398278-4.692071c0-0.213276 13.223107-0.255931 29.432078-0.08531 29.432078 0.341241 29.517388 0.341241 39.839943-2.474001 64.068088-17.318005 116.619277-64.49464 144.686388-129.885039 5.84376-13.649659 16.03835-42.783151 15.270557-43.5936-0.298586-0.298586-3.711001 1.407621-7.592623 3.753657-9.810693 6.057036-30.711733 16.379591-42.868462 21.242282a304.558023 304.558023 0 0 1-94.139994 21.242282l-9.128209 0.682483-7.251382 6.82483c-25.593111 24.10018-64.110744 47.006014-99.301271 59.120087-19.621385 6.739519-31.820768 9.512106-94.950443 21.498213-31.266251 5.929071-66.755365 12.881866-78.912092 15.398522-88.210923 18.555006-144.643733 41.759426-175.142191 72.044608-10.36521 10.237244-15.953039 18.213764-22.010076 31.138285-3.071173 6.568899-6.398278 11.687521-11.218314 17.062074a86.675337 86.675337 0 0 0-18.000488 34.209459c-3.966932 15.867729-2.175414 39.07215 4.60676 58.906811 2.38869 7.080761 8.659003 21.626179 9.29883 21.626179a33.697596 33.697596 0 0 0 1.535587-5.886416z m-34.977252-37.024701l-1.066379-15.611797-11.090349-16.635523a928.048867 928.048867 0 0 1-19.962626-31.436871 858.64888 858.64888 0 0 1-32.119355-61.935329l-2.175414-5.118622 0.554517 4.094897c1.109035 7.763244 6.398278 28.749595 10.109279 40.22384a324.179408 324.179408 0 0 0 36.683459 76.054195c6.696864 10.023969 19.322799 26.787456 19.792006 26.31825a165.800705 165.800705 0 0 0-0.682483-15.95304z m-0.426552-59.717259c-3.241794-16.891453-1.706207-39.754633 3.668346-53.276326 2.260725-5.75845 6.952795-15.185246 7.507313-15.185246 0.213276 0 1.876828 4.052243 3.668346 8.957589 3.241794 9.042899 7.677933 17.701902 9.000244 17.659246 0.426552 0 2.516656-3.028518 4.69207-6.739519 2.132759-3.668346 6.82483-10.578486 10.407866-15.355867l6.568898-8.659002-4.052243-2.559311c-13.052487-8.232451-24.953283-27.128698-30.071905-47.645842-4.990657-20.261213-6.526243-51.186222-3.753656-76.523403a89.575889 89.575889 0 0 0 0.938414-13.052487c-0.725138-0.682483-14.929315 17.019419-23.801594 29.517389a335.269757 335.269757 0 0 0-36.896735 67.779089l-4.52145 11.260969 4.43614 12.540624a401.68388 401.68388 0 0 0 53.532257 100.239686 54.12943 54.12943 0 0 0-1.279655-8.957589z m62.660468-79.978472c-2.985863-12.370004-4.265519-28.664285-4.265519-57.627156 0-27.853836 0.213276-31.991389 2.38869-44.062806 2.857897-15.697108 8.14714-33.825562 12.967177-44.276083 3.54038-7.592623 13.777625-25.25187 14.374797-24.654697a362.569075 362.569075 0 0 1-2.559311 22.052731c-4.60676 34.380079-5.545174 47.048669-4.820036 66.883331 0.810449 22.735214 4.862691 51.186222 7.336692 51.186222 0.981069 0 1.279656-4.820036 1.194345-21.242282a240.6179 240.6179 0 0 1 10.237245-75.073126c8.531037-29.773319 26.531525-69.01609 43.081737-93.670787a37.195322 37.195322 0 0 0 3.412415-5.75845c0-0.341241-2.687277-0.213276-5.929071 0.255931-39.328081 6.014381-71.276815 32.417941-87.229854 72.087263l-3.966932 9.810693 0.426552-6.952796c1.364966-20.005282 5.331898-48.115049 8.104485-57.371224 0.341241-1.023724-0.639828 0.426552-2.132759 3.156484-11.815486 21.839455-23.0338 84.286646-22.991145 128.136177 0 32.119355 5.715795 55.323775 17.318005 70.722297 5.459864 7.251382 14.332142 11.559555 13.052487 6.398278z m54.342706-39.200116c9.042899-4.436139 21.455558-7.97652 75.584988-21.626179 23.673628-5.971726 48.541601-12.625935 55.323775-14.886659a172.540225 172.540225 0 0 0 66.883331-40.266495c19.706696-18.938902 26.318249-29.005526 32.545906-49.565326 2.857897-9.512106 2.857897-9.554762 4.692071-7.166071 7.891209 10.45052 7.763244 35.489114-0.213276 51.186223-1.109035 2.132759-1.620897 3.966932-1.15169 3.966932 2.132759 0 13.436383-8.360416 18.171109-13.436384 12.412659-13.265763 18.171109-25.379835 28.152422-59.290707a160.810049 160.810049 0 0 1 5.118622-15.697108c0.895759-1.023724 4.60676 7.507313 6.82483 15.910384 1.194345 4.436139 1.706207 10.237244 1.706207 18.768281-0.127966 14.033556-2.687277 24.740007-9.128209 37.493908l-3.668346 7.251382 5.459863-2.943208c13.223107-7.080761 37.323287-36.598149 47.603187-58.309638a78.058989 78.058989 0 0 0 8.957589-37.83515c0.08531-18.128454-3.711001-30.02925-14.673384-45.854324-14.332142-20.687765-46.622118-44.787945-74.85985-55.920948-4.350829-1.706207-7.166071-3.881622-12.114072-9.384141-3.54038-3.924277-5.971726-7.123416-5.374554-7.123416 1.279656 0 20.133247 5.118622 32.844493 8.914934 30.071906 8.957589 53.660223 22.180696 71.831332 40.181185 21.029006 20.81573 31.01032 42.69784 30.882354 67.651124-0.127966 22.095386-7.891209 42.143323-24.995938 64.793226a83.177611 83.177611 0 0 0-5.971726 8.403072c0 0.853104 16.379591-6.483588 26.616835-11.858142 12.924521-6.82483 33.782907-20.901041 41.802082-28.067112 11.133003-10.109279 26.019663-34.977252 32.417941-54.257396a105.358308 105.358308 0 0 0 2.687276-57.371224c-3.966932-15.398522-14.076211-33.143079-26.65949-46.878048l-5.417209-5.886416h5.203933c2.815242 0 5.417209-0.426552 5.715794-0.938414 1.279656-2.047449-1.706207-6.398278-6.312967-9.341486-7.933864-5.033312-11.218314-5.459864-25.849042-3.62569-16.422246 2.090104-42.61253 2.132759-55.28112 0.042655-10.962383-1.791518-23.161766-5.630484-29.048182-9.12821l-4.009587-2.38869 37.237977-0.511863c28.365698-0.426552 39.285426-0.938414 45.854324-2.218069 9.512106-1.834173 16.20897-4.393484 18.42704-7.123416 1.279656-1.535587 0.981069-2.175414-2.559311-5.886416-11.43159-11.815486-32.716527-26.446215-54.172085-37.323287a258.789009 258.789009 0 0 0-118.880002-28.109767c-16.507557 0-36.683459 1.706207-45.555738 3.796312l-2.559311 0.597172 3.071173-3.284449c4.009587-4.265519 17.403316-10.834417 27.299319-13.308418 17.488626-4.436139 41.759426-5.971726 65.390399-4.265518 33.015113 2.474001 56.731396 8.531037 88.59482 22.692558 6.739519 2.985863 13.137797 5.417209 14.204177 5.331898 2.559311-0.213276 5.715795-3.156484 7.294036-6.91014l1.322311-3.071173 3.199139 6.867485c1.748863 3.838967 3.199139 7.379347 3.199139 8.019175 0 2.516656 1.876828-0.298586 3.071173-4.692071a14.801349 14.801349 0 0 1 2.21807-5.161277c1.023724-0.682483 3.711001 5.331898 7.080761 15.782418l2.38869 7.379347 5.289243-5.246587c6.270312-6.185002 6.440933-5.971726 7.336692 7.422002l0.554517 8.872278 4.692071-2.943207c2.644621-1.620897 5.033312-2.559311 5.374553-2.21807 0.341241 0.426552 1.620897 3.966932 2.900553 7.891209 3.711001 11.5169 8.744313 21.071662 14.588073 27.811181a85.310371 85.310371 0 0 1 9.042899 13.052487c1.962139 3.711001 4.009587 6.611554 4.478795 6.483588 1.620897-0.511862 8.701658-13.095142 12.114072-21.412903a31.266251 31.266251 0 0 1 4.009588-7.97652c1.407621 0 2.21807 11.388934 1.706207 24.18549a85.353026 85.353026 0 0 0 0 12.66859 41.37553 41.37553 0 0 0 5.331898-3.583035 29.517388 29.517388 0 0 1 5.67314-3.583036c2.175414 0-2.601966 31.991389-6.185002 41.247564-1.364966 3.412415 1.492931 1.706207 8.147141-4.948001 3.711001-3.668346 6.739519-6.099691 6.739519-5.374553 0 2.601966-6.014381 24.995939-8.189796 30.541112a157.397634 157.397634 0 0 1-6.654209 13.82028 127.112452 127.112452 0 0 0-10.109279 23.332387l-0.725138 2.857897 4.990657-3.412415c5.459864-3.753656 8.104485-4.905346 38.09108-16.678177 26.48887-10.407865 41.418185-17.616592 47.432566-22.991145 6.398278-5.715795 9.938658-12.66859 9.938659-19.621385v-5.289243l-2.943208 4.009587c-5.630484 7.720589-19.024213 18.768282-31.394217 26.019663l-4.094897 2.388691 3.199139-3.497726c13.564349-14.929315 22.863179-35.659735 22.905834-51.271532 0-5.630484-1.450276-13.82028-3.241794-18.213765-1.322311-3.199139-1.364966-3.113829-8.957589 15.483833-8.744313 21.498213-17.062074 38.730908-22.649903 47.006014-8.275106 12.199383-20.602455 23.204421-28.067112 25.081249-2.559311 0.639828-2.729932 0.511862-1.791518-1.279656 1.748863-3.241794 4.137553-13.692314 5.203933-22.863179 0.597173-4.777381 1.279656-28.536319 1.620897-52.764464 0.554517-43.167048 1.279656-54.641292 3.966932-66.158193 1.322311-5.67314 1.322311-5.801105-3.071173-17.403315a251.622938 251.622938 0 0 0-7.166072-17.147385c-2.857897-5.715795-9.170865-14.502763-10.407865-14.502763-0.426552 0-2.985863 5.118622-5.84376 11.388935l-5.118622 11.388934-0.511863-9.597416c-0.426552-7.677933-0.938414-10.237244-2.729932-12.711246a72.385849 72.385849 0 0 0-18.640315-16.422246 215.408686 215.408686 0 0 0-30.754389-15.355867c-2.431346-0.725138-2.431346-0.682483-1.706208 4.777381 0.383897 2.985863 0.981069 6.611554 1.279656 7.933864 0.597173 2.346035 0.426552 2.431346-3.284449 1.706208a31.052975 31.052975 0 0 1-17.360661-9.981313c-2.601966-2.815242-4.990657-4.905346-5.289243-4.60676a40.053219 40.053219 0 0 0 2.559311 9.554761c1.620897 4.990657 2.815242 9.29883 2.559312 9.554762-0.682483 0.682483-7.763244-2.047449-10.834417-4.265519a49.138773 49.138773 0 0 1-7.97652-10.535831 62.831088 62.831088 0 0 0-9.384141-12.242038c-6.654209-5.67314-9.725382-6.398278-41.37553-9.682727a59.376018 59.376018 0 0 1-19.152178-4.69207c-1.535587-0.639828-1.450276 0 0.682483 4.862691 1.364966 3.071173 2.815242 7.251382 3.156484 9.21352l0.682483 3.583035-4.436139-0.853103a72.641781 72.641781 0 0 1-22.777869-9.21352c-6.739519-4.094898-7.208726-4.180208-19.237489-4.948002a154.625047 154.625047 0 0 0-41.802082 2.772587l-7.677933 1.876828 7.677933 0.853104c10.237244 1.06638 19.194833 3.924277 24.612042 7.891209 4.393484 3.156484 8.06183 6.82483 8.104486 8.147141 0 0.341241-8.104485 0.853104-18.128454 1.15169-28.834905 0.767793-47.006014 5.331898-72.55647 18.128453-12.796556 6.398278-47.944428 29.090836-56.646087 36.512839-5.118622 4.393484-14.460108 16.720833-14.502763 19.066868 0 1.279656 1.962139 2.30338 7.464658 3.838967 41.37553 11.900797 67.267227 41.972702 72.385849 84.030715 3.711001 30.242526 3.156484 48.968153-1.919483 69.1014-7.805899 30.925009-27.981802 60.740984-50.58905 74.77454-8.317761 5.161277-25.593111 11.815486-30.754388 11.858141h-2.900553l5.289243-5.801105c12.370004-13.521694 21.327593-30.711733 27.384629-52.593843 3.36976-12.156728 3.711001-24.995939 0.853104-34.636011-2.047449-6.952795-2.687277-7.038106-4.692071-0.725138a110.47693 110.47693 0 0 1-10.877072 22.863179c-2.132759 3.284449-16.507557 18.42704-32.673872 34.5507-36.76877 36.512839-52.167292 55.494396-66.542089 81.855301a220.996515 220.996515 0 0 0-23.0338 69.741228c-2.132759 16.891453-1.578242 45.555738 0.895759 45.555738 0.426552 0 4.009587-1.578242 8.019175-3.583036z m487.420802-153.558667c26.48887-8.914934 47.048669-18.51235 64.40933-29.986595 12.540624-8.275106 29.048181-24.526732 38.389667-37.707184 9.12821-12.967176 22.393972-41.076943 20.346523-43.167047-1.15169-1.109035-19.194833 5.715795-25.251869 9.554761-6.526243 4.180208-10.45052 7.336692-29.77332 23.929559-19.024213 16.336936-22.820524 19.109523-32.545906 23.758938-10.151934 4.905346-16.20897 5.374553-22.692559 1.706208a14.076211 14.076211 0 0 1-4.180208-2.900553c0-0.298586 1.876828-1.706207 4.094898-3.071173 4.436139-2.772587 12.967176-11.005038 12.156728-11.815487a85.566302 85.566302 0 0 0-13.223108 6.73952c-34.63601 19.749351-52.807119 36.256908-55.792982 50.844981-0.853104 4.180208 0.213276 4.265519 11.218314 0.682482 26.787456-8.744313 58.522914-25.42249 98.448167-51.740739 11.60221-7.635278 17.318005-10.749107 22.521938-12.242038a28.323043 28.323043 0 0 1 7.422002-1.535587c1.279656 1.279656-11.5169 15.995694-21.88211 25.25187-25.934353 23.11911-49.480015 38.730908-76.694023 50.717015-6.82483 2.985863-11.900797 5.459864-11.303624 5.459864 0.597173 0 7.038106-1.962139 14.332142-4.43614z m37.963115-161.577842c10.919727-16.422246 14.332142-28.749595 15.782419-56.731396 1.364966-26.40356 4.180208-42.143323 11.303624-62.703123 1.706207-4.862691 2.857897-8.957589 2.644621-9.21352-1.06638-1.06638-11.346279 12.412659-14.929315 19.621386-10.237244 20.773075-18.256419 57.328569-22.05273 100.666237-0.853104 9.469451-1.535587 17.616592-1.535587 18.128454 0 1.791518 4.265519-2.985863 8.786968-9.810693z" p-id="2726"></path></svg>