<?xml version="1.0" standalone="no"?><!DOCTYPE svg PUBLIC "-//W3C//DTD SVG 1.1//EN" "http://www.w3.org/Graphics/SVG/1.1/DTD/svg11.dtd"><svg t="1661253853574" class="icon" viewBox="0 0 1024 1024" version="1.1" xmlns="http://www.w3.org/2000/svg" p-id="2357" xmlns:xlink="http://www.w3.org/1999/xlink" width="128" height="128"><defs><style type="text/css"></style></defs><path d="M473.6 488.35L352.38 367.13l-205 445.62a77.8 77.8 0 0 0-6.54 45.15 77.79 77.79 0 0 0 45.33-6.51L217.33 837l414.34-190.58z" fill="#FF675F" p-id="2358"></path><path d="M253.14 820.64l43.06-19.81c-0.72 0-1.44-0.07-2.17-0.07a52 52 0 0 0-40.89 19.88zM311.92 629.89a94.19 94.19 0 0 1 9.76-8.82 34 34 0 0 0-54.43 0.83 94.12 94.12 0 0 1 9.7 9 21 21 0 0 1 35-1zM379.3 548.69a39 39 0 0 1 32.16 16.93 94.4 94.4 0 0 1 11.21-6.77 52 52 0 0 0-86.4-0.5 94.36 94.36 0 0 1 11.3 6.65 39 39 0 0 1 31.73-16.31zM215.41 812.52a92.56 92.56 0 0 1 13.86 2.1A75.07 75.07 0 0 1 328.39 786l14.48-6.66a88.22 88.22 0 0 0-127.46 33.17zM336.82 770a94.39 94.39 0 0 1 11.18 6.83 39 39 0 0 1 31.29-15.69c1 0 1.94 0 2.9 0.12l18.63-8.57a52 52 0 0 0-64 17.32z" fill="#FF5041" p-id="2359"></path><path d="M397.59 577.53a94.27 94.27 0 0 1 9.86-8.94 34 34 0 0 0-55.83-0.66 94.19 94.19 0 0 1 9.89 8.75 21 21 0 0 1 36.09 0.85zM300.47 654.45a92.53 92.53 0 0 1 13.94 1.92 75.21 75.21 0 0 1 129.94 0.27 92.56 92.56 0 0 1 13.82-2.11 88.41 88.41 0 0 0-157.7-0.08z" fill="#FF5041" p-id="2360"></path><path d="M379.3 601.07h1.84a93.27 93.27 0 0 1 13-19.79l-0.21 0.09a16 16 0 0 0-28.88-0.89 93.29 93.29 0 0 1 13.69 20.56zM319.62 763.15a93.64 93.64 0 0 1 12.63 4.63 57.07 57.07 0 0 1 74.4-17.78l14.11-6.49a70.11 70.11 0 0 0-101.14 19.63zM294.79 602.88a39 39 0 0 1 30.91 15.22 94.4 94.4 0 0 1 11.3-6.79 52.06 52.06 0 0 0-84.81 0.64 94.4 94.4 0 0 1 11.12 6.92 39 39 0 0 1 31.48-15.99zM234.32 815.93a93.66 93.66 0 0 1 12.62 4.65 57.05 57.05 0 0 1 58-23.77l17.58-8.09a70.07 70.07 0 0 0-88.18 27.2zM549.66 660.41A34 34 0 0 0 522.43 674a94.22 94.22 0 0 1 9.83 8.8 20.9 20.9 0 0 1 30.53-4.64l12.7-5.84a34 34 0 0 0-25.83-11.91z" fill="#FF5041" p-id="2361"></path><path d="M549.66 642.3a52 52 0 0 0-42.52 22 94.36 94.36 0 0 1 11.27 6.7 39 39 0 0 1 61.79-0.88l12.14-5.59a52 52 0 0 0-42.68-22.23zM596 613.46l-2.46-2.46c-0.19 0.26-0.39 0.51-0.58 0.77q1.52 0.84 3.04 1.69z" fill="#FF5041" p-id="2362"></path><path d="M549.66 606.07a88.87 88.87 0 0 0-78.83 48.38 92.49 92.49 0 0 1 13.94 1.92 75.2 75.2 0 0 1 128.83-1.57l12-5.53a88.87 88.87 0 0 0-75.94-43.2z" fill="#FF5041" p-id="2363"></path><path d="M549.66 624.19a70.52 70.52 0 0 0-59.82 33.45 93.6 93.6 0 0 1 12.69 4.52 57.09 57.09 0 0 1 94.44 0.29l12-5.54a70.51 70.51 0 0 0-59.31-32.72zM437.74 727.45c2.13 1.71 4.19 3.53 6.17 5.42l35.26-16.22a34 34 0 0 0-41.43 10.8zM465.14 659.26a88.87 88.87 0 0 0-78.54 47.83 92.55 92.55 0 0 1 13.83 2.16 75.16 75.16 0 0 1 120.65-11.89l12.4-5.7a88.79 88.79 0 0 0-68.34-32.4zM300.69 759.77a92.54 92.54 0 0 1 13.87 2.08 75.11 75.11 0 0 1 111.34-20.69l13.12-6a88.27 88.27 0 0 0-138.32 24.65z" fill="#FF5041" p-id="2364"></path><path d="M422.61 717.54a94.39 94.39 0 0 1 11.15 6.89A39 39 0 0 1 484.92 714l13.71-6.31a52 52 0 0 0-76 9.84z" fill="#FF5041" p-id="2365"></path><path d="M465.14 677.38a70.52 70.52 0 0 0-59.66 33.2 93.66 93.66 0 0 1 12.58 4.71 57 57 0 0 1 85.52-9.87l12.72-5.85a70.39 70.39 0 0 0-51.16-22.19zM535.77 686.63c0.82 0.94 1.61 1.9 2.39 2.88l19.35-8.9a15.91 15.91 0 0 0-21.74 6zM379.3 660.41A34 34 0 0 0 352.08 674a94.17 94.17 0 0 1 9.83 8.8 20.94 20.94 0 0 1 35.32 0.81 94.16 94.16 0 0 1 9.77-9 34 34 0 0 0-27.7-14.2z" fill="#FF5041" p-id="2366"></path><path d="M379.3 642.3a52 52 0 0 0-42.52 22 94.42 94.42 0 0 1 11.27 6.7 39 39 0 0 1 62.94 0.63 94.35 94.35 0 0 1 11.17-6.84 52 52 0 0 0-42.86-22.49zM465.14 626a16 16 0 0 0-14.19 8.65 93.24 93.24 0 0 1 12.67 19.65h1.73a93.26 93.26 0 0 1 13.45-20.56 16 16 0 0 0-13.66-7.74z" fill="#FF5041" p-id="2367"></path><path d="M465.14 607.88a34 34 0 0 0-27.4 13.84 94.14 94.14 0 0 1 9.72 9 20.95 20.95 0 0 1 34.82-0.81 94.19 94.19 0 0 1 9.76-8.82 34 34 0 0 0-26.9-13.21zM379.3 678.53a16 16 0 0 0-13.89 8.11 93.27 93.27 0 0 1 13.36 20.17h2.37a93.26 93.26 0 0 1 12.56-19.21 16 16 0 0 0-14.4-9.07zM379.3 624.19a70.52 70.52 0 0 0-59.82 33.45 93.56 93.56 0 0 1 12.69 4.52 57.09 57.09 0 0 1 94.55 0.45 93.65 93.65 0 0 1 12.6-4.61 70.53 70.53 0 0 0-60.02-33.81zM170.07 820.66a93.68 93.68 0 0 1 12.6-4.66A70.75 70.75 0 0 0 156 791l-5.48 11.9a57.44 57.44 0 0 1 19.55 17.76zM187.72 814.67a92.54 92.54 0 0 1 13.84-2.13 89 89 0 0 0-38-38l-5.48 11.91a75.77 75.77 0 0 1 29.64 28.22zM154.35 829.76a94.43 94.43 0 0 1 11.17-6.86 52.49 52.49 0 0 0-17.13-15.46l-2.86 6.23q-1.34 2.92-2.43 5.84a39.29 39.29 0 0 1 11.25 10.25zM150.35 832.76a34.33 34.33 0 0 0-8.9-8.38 78.4 78.4 0 0 0-3 14.55 21.09 21.09 0 0 1 2.14 2.79 94.2 94.2 0 0 1 9.76-8.96z" fill="#FF5041" p-id="2368"></path><path d="M465.14 571.65a70.52 70.52 0 0 0-59.66 33.2 93.67 93.67 0 0 1 12.58 4.71 57.09 57.09 0 0 1 93.85-0.44 93.62 93.62 0 0 1 12.7-4.58 70.51 70.51 0 0 0-59.47-32.89z" fill="#FF5041" p-id="2369"></path><path d="M465.14 589.77a52 52 0 0 0-42.53 22.05 94.37 94.37 0 0 1 11.15 6.89 39 39 0 0 1 62.3-0.61 94.37 94.37 0 0 1 11.27-6.79 52 52 0 0 0-42.19-21.54zM411 459.22a94.43 94.43 0 0 1 11.17-6.84 52 52 0 0 0-85.38-0.51 94.36 94.36 0 0 1 11.27 6.72 39 39 0 0 1 62.94 0.63z" fill="#FF5041" p-id="2370"></path><path d="M397.23 471.18a94.16 94.16 0 0 1 9.77-9 34 34 0 0 0-54.92-0.66 94.23 94.23 0 0 1 9.83 8.8 20.94 20.94 0 0 1 35.32 0.81zM379.3 512.46a75.55 75.55 0 0 1 65.57 38.33 92.55 92.55 0 0 1 13.78-2A88.39 88.39 0 0 0 300 548.7a92.51 92.51 0 0 1 13.89 1.84 75.54 75.54 0 0 1 65.41-38.08zM294.79 519.27a16 16 0 0 0-14.32 8.91 93.24 93.24 0 0 1 12.91 20.34h-0.09 1.27A93.25 93.25 0 0 1 308.45 527a16 16 0 0 0-13.66-7.73z" fill="#FF5041" p-id="2371"></path><path d="M379.3 494.34h1.84a93.24 93.24 0 0 1 12.55-19.23 16 16 0 0 0-28.29-1 93.27 93.27 0 0 1 13.36 20.17zM386.61 601.37a92.55 92.55 0 0 1 13.83 2.16 75.21 75.21 0 0 1 129.26-0.28 92.56 92.56 0 0 1 13.94-2 88.39 88.39 0 0 0-157 0.09zM379.3 530.57a57 57 0 0 1 47.94 26.08 93.6 93.6 0 0 1 12.59-4.57 70.21 70.21 0 0 0-120.83-0.31 93.57 93.57 0 0 1 12.7 4.44 57 57 0 0 1 47.6-25.64zM447.46 524a20.95 20.95 0 0 1 34.82-0.81 94.24 94.24 0 0 1 9.76-8.82 34 34 0 0 0-54.29 0.64 94.14 94.14 0 0 1 9.71 8.99z" fill="#FF5041" p-id="2372"></path><path d="M465.14 519.27a16 16 0 0 0-14.19 8.65 93.24 93.24 0 0 1 13.14 20.61h-0.07 0.9A93.23 93.23 0 0 1 478.8 527a16 16 0 0 0-13.66-7.73zM470.35 548.7a92.51 92.51 0 0 1 13.89 1.84 75.73 75.73 0 0 1 23.52-25.28l-9.4-9.4a88.76 88.76 0 0 0-28.01 32.84zM294.79 672.38A75.53 75.53 0 0 1 359.33 709a92.53 92.53 0 0 1 13.94-2 88.39 88.39 0 0 0-157 0.12 92.59 92.59 0 0 1 13.8 2.21 75.53 75.53 0 0 1 64.72-36.95z" fill="#FF5041" p-id="2373"></path><path d="M294.79 654.26h0.21a93.27 93.27 0 0 1 13.45-20.56 16 16 0 0 0-28 1.2 93.24 93.24 0 0 1 12.45 19.39c0.64-0.01 1.26-0.03 1.89-0.03zM465.55 483.05h-0.41a52 52 0 0 0-42.53 22.05 94.37 94.37 0 0 1 11.15 6.9A39 39 0 0 1 483 500.48l-11.22-11.22zM294.79 708.61a39 39 0 0 1 30.91 15.22A94.4 94.4 0 0 1 337 717a52.06 52.06 0 0 0-84.81 0.64 94.34 94.34 0 0 1 11.12 6.92 39 39 0 0 1 31.48-15.95z" fill="#FF5041" p-id="2374"></path><path d="M294.79 690.49a57 57 0 0 1 46.77 24.36 93.6 93.6 0 0 1 12.7-4.58 70.2 70.2 0 0 0-119.18 0.4 93.69 93.69 0 0 1 12.55 4.75 57 57 0 0 1 47.16-24.93zM201 707.12a86.73 86.73 0 0 0-3.58-6.23l-3.25 7.05q3.37-0.53 6.83-0.82zM332.58 407.08l-14.13 30.7a75.48 75.48 0 0 1 60.85-31 74.58 74.58 0 0 1 10.71 0.78l-13.84-13.84a88.33 88.33 0 0 0-43.59 13.36zM206.42 706.84H210.78a93.24 93.24 0 0 1 12.33-19 16 16 0 0 0-14.52-9.34h-0.92l-7.81 17a93.19 93.19 0 0 1 6.56 11.34zM208.59 724.91a75.54 75.54 0 0 1 64.76 37 92.56 92.56 0 0 1 13.86-2.1 88.87 88.87 0 0 0-78.62-48 87.41 87.41 0 0 0-17 1.68l-7.1 15.43a74.75 74.75 0 0 1 24.1-4.01z" fill="#FF5041" p-id="2375"></path><path d="M208.59 743a57 57 0 0 1 47.1 24.82 93.65 93.65 0 0 1 12.61-4.65 70.06 70.06 0 0 0-86.77-27.81l-9.7 21.09A56.85 56.85 0 0 1 208.59 743zM336.59 398.36l-0.43 0.93 0.81-0.43c-0.12-0.17-0.26-0.33-0.38-0.5zM226.19 788.83a94.19 94.19 0 0 1 9.75-8.93 34 34 0 0 0-54.77 0.12 94.2 94.2 0 0 1 9.74 9 21 21 0 0 1 35.28-0.14z" fill="#FF5041" p-id="2376"></path><path d="M208.59 812.27h1.35a93.25 93.25 0 0 1 12.76-19.56 16 16 0 0 0-28.3 0.17A93.27 93.27 0 0 1 207 812.3zM208.59 830.39a74.65 74.65 0 0 1 18.36 2.3l17.16-7.9a87.89 87.89 0 0 0-35.52-7.52 88.83 88.83 0 0 0-70.36 34.94c0.16 2.22 0.4 4.43 0.74 6.61a75.52 75.52 0 0 0 10 0.93 75.48 75.48 0 0 1 59.62-29.36zM208.59 761.14a39 39 0 0 1 31.35 15.77 94.39 94.39 0 0 1 11.18-6.84 52 52 0 0 0-85.12 0.09 94.42 94.42 0 0 1 11.17 6.84 39 39 0 0 1 31.42-15.86zM354.25 392.09a70.7 70.7 0 0 0-9.35-11.79l-6 13c0.91 1.1 1.79 2.23 2.62 3.41a93.6 93.6 0 0 1 12.73-4.62zM359.33 390.8a92.25 92.25 0 0 1 12.14-1.8l-20.93-21-3.41 7.42a75.68 75.68 0 0 1 12.2 15.38zM226.66 683.87a94.18 94.18 0 0 1 9.76-9 34.11 34.11 0 0 0-20.74-13.68L210 673.57a21 21 0 0 1 16.66 10.3zM311.92 735.62a94.19 94.19 0 0 1 9.76-8.82 34 34 0 0 0-54.43 0.83 94.12 94.12 0 0 1 9.7 9 21 21 0 0 1 35-1z" fill="#FF5041" p-id="2377"></path><path d="M155.54 859.65a80 80 0 0 0 28.77-7.34L215.49 838l3.79-1.74a69.6 69.6 0 0 0-10.69-0.83 70.44 70.44 0 0 0-53.05 24.22zM294.79 514.27a21 21 0 0 1 17.13 8.9 94.14 94.14 0 0 1 9.76-8.82 33.95 33.95 0 0 0-32.61-12.71l-8.29 18a21 21 0 0 1 14.01-5.37zM405.48 498.13a93.67 93.67 0 0 1 12.58 4.71 57 57 0 0 1 42.66-24.61l-11.46-11.46a70.71 70.71 0 0 0-43.78 31.36zM294 759.53h1.18a93.27 93.27 0 0 1 13.24-20.12 16 16 0 0 0-28 1.2 93.24 93.24 0 0 1 12.22 18.92zM379.3 411.73a70.52 70.52 0 0 0-59.82 33.45 93.56 93.56 0 0 1 12.69 4.52 57.09 57.09 0 0 1 94.55 0.45c1.37-0.62 2.76-1.2 4.17-1.76l-34.54-34.54a69.7 69.7 0 0 0-17.05-2.12zM240.41 671.84a94.4 94.4 0 0 1 11.14-6.84 52.21 52.21 0 0 0-28.19-20.52l-5.55 12.06a39.12 39.12 0 0 1 22.6 15.3z" fill="#FF5041" p-id="2378"></path><path d="M386.61 494.64a92.55 92.55 0 0 1 13.83 2.16 75.74 75.74 0 0 1 44.72-34.15l-10.4-10.4a89.06 89.06 0 0 0-48.15 42.39zM522 567.94a94.28 94.28 0 0 1 9.89 8.75 21 21 0 0 1 17.45-9.87l-11.12-11.12A34.19 34.19 0 0 0 522 567.94zM570.79 603.53a75.69 75.69 0 0 1 6.28-9l-9.32-9.32A88.34 88.34 0 0 0 557 601.37a92.56 92.56 0 0 1 13.79 2.16zM549.66 571.8a16 16 0 0 0-14.22 8.72 93.29 93.29 0 0 1 13.69 20.56h2.37a93.21 93.21 0 0 1 12.7-19.4l-8.85-8.85a15.9 15.9 0 0 0-5.69-1.03zM506.63 558.34a94.38 94.38 0 0 1 11.3 6.65 39.22 39.22 0 0 1 16.4-13.16l-9.78-9.78a52.53 52.53 0 0 0-17.92 16.29zM359.33 496.53a92.53 92.53 0 0 1 13.94-2 89.05 89.05 0 0 0-59.9-45.73l-5.64 12.25a75.67 75.67 0 0 1 51.6 35.48zM489.32 551.77a93.54 93.54 0 0 1 12.7 4.44 57.53 57.53 0 0 1 18.86-17.83l-9.5-9.5a70.74 70.74 0 0 0-22.06 22.89zM294.79 566.65a75.53 75.53 0 0 1 64.55 36.6 92.53 92.53 0 0 1 13.94-2 88.87 88.87 0 0 0-78.49-47.74 87.79 87.79 0 0 0-32.46 6.24l-8.89 19.33a75.12 75.12 0 0 1 41.35-12.43z" fill="#FF5041" p-id="2379"></path><path d="M247.61 609.69a57.09 57.09 0 0 1 93.94-0.57 93.6 93.6 0 0 1 12.7-4.58A70.11 70.11 0 0 0 249 588.69l-8.34 18.13q3.54 1.31 6.95 2.87zM256.1 662.73a93.66 93.66 0 0 1 12.56-4.73A70.74 70.74 0 0 0 231 627.88l-5.51 12a57.2 57.2 0 0 1 30.61 22.85z" fill="#FF5041" p-id="2380"></path><path d="M273.69 656.72a92.57 92.57 0 0 1 13.79-2.16 89.05 89.05 0 0 0-48.89-43.19l-5.5 12a75.75 75.75 0 0 1 40.6 33.35zM274.2 550.87a92.54 92.54 0 0 1 13.74-2.08 88.37 88.37 0 0 0-12.12-18.35l-6.15 13.37a75.72 75.72 0 0 1 4.53 7.06zM269.17 552.17c-0.62-1-1.27-2.06-1.93-3.07l-2 4.3c1.31-0.4 2.61-0.85 3.93-1.23zM294.79 496.15a39 39 0 0 1 30.91 15.22 94.36 94.36 0 0 1 11.3-6.79 52 52 0 0 0-39.38-21.46l-6.06 13.18c1.05-0.09 2.13-0.15 3.23-0.15zM588.41 609.57c0.5-0.72 1-1.41 1.55-2.1l-9.34-9.34a70.7 70.7 0 0 0-4.78 6.73 93.69 93.69 0 0 1 12.57 4.71z" fill="#FF5041" p-id="2381"></path><path d="M341.55 502.4a93.6 93.6 0 0 1 12.7-4.58 70.65 70.65 0 0 0-48.68-32l-5.76 12.51a57 57 0 0 1 41.74 24.07z" fill="#FF5041" p-id="2382"></path><path d="M409.53 656.74v-78.55h-65.07v-30h95.07v78.55h70.69v69.01h80.53v96.64h-30v-66.64h-80.53v-69.01h-70.69zM334.77 731.5v-78.55H269.7v-30h95.07v78.55h70.69v69.01h80.53v96.64h-30v-66.64h-80.53V731.5h-70.69z" fill="#FFFFFF" p-id="2383"></path><path d="M208.68 928.67a103.92 103.92 0 0 1-93.87-147.21l220-478.24L730.6 699 252.36 919a104.35 104.35 0 0 1-43.68 9.67z m33.23-32.37z m108.33-507l-190 413c-11.52 25-2 47.63 10.81 60.42s35.37 22.34 60.42 10.81l413-190z" fill="#2C2C4E" p-id="2384"></path><path d="M156.46 870.6c-19.47-21.66-27.41-53.77-12.86-85.39l205-445.62 171 171z" fill="#2C2C4E" opacity=".15" p-id="2385"></path><path d="M495.587 499.334L632.06 362.862l35.355 35.356-136.471 136.471zM657.834 337.724l79.903-79.903 35.356 35.355-79.903 79.903zM426.34 429.2l-36.23-34.46c2-2.15 156.93-167.16 133.58-287.73l49.09-9.51c12.1 62.47-9.3 137.7-63.6 223.62C470 383 428.1 427.34 426.34 429.2zM639 643.63l-34.46-36.23c1.86-1.77 46.16-43.69 108.08-82.83 85.91-54.31 161.14-75.71 223.62-63.6L926.73 510C806 486.66 640.65 642.06 639 643.63zM651.86 258.42l-40.38-29.49-0.08 0.11c0.1-0.14 10.05-14.24 17.65-37.85a181.56 181.56 0 0 0 4.36-95.62l48.85-10.69c21.95 100.36-28.26 170.6-30.4 173.54zM702.38 472.78L667 437.42c2.54-2.53 63.13-62 155.12-53.17L817.38 434c-68.8-6.55-114.54 38.32-115 38.78z" fill="#2C2C4E" p-id="2386"></path></svg>