<?xml version="1.0" standalone="no"?><!DOCTYPE svg PUBLIC "-//W3C//DTD SVG 1.1//EN" "http://www.w3.org/Graphics/SVG/1.1/DTD/svg11.dtd"><svg t="1657540895750" class="icon" viewBox="0 0 1024 1024" version="1.1" xmlns="http://www.w3.org/2000/svg" p-id="3379" xmlns:xlink="http://www.w3.org/1999/xlink" width="128" height="128"><defs><style type="text/css"></style></defs><path d="M748.416 460.352L947.2 655.8144 748.416 851.2v-55.6608a11.52 11.52 0 0 0-11.52-11.52H499.5072V526.24h237.4016a11.52 11.52 0 0 0 11.52-11.52V460.352zM473.984 172.8v54.368a11.52 11.52 0 0 0 10.5728 11.4816l0.9408 0.0384h237.4016v257.7728H485.4976a11.52 11.52 0 0 0-11.4816 10.5792l-0.0384 0.9408v55.6672L275.2 368.256 473.984 172.8z" fill="#E9F2FE" p-id="3380"></path><path d="M310.112 111.9104a32.3136 32.3136 0 0 1 35.3216-7.0272 32.32 32.32 0 0 1 20 29.9392v40.8832h194.7264a16 16 0 1 1 0 32H349.44a16 16 0 0 1-16-16v-56.8832a0.96 0.96 0 0 0-0.0192-0.256 1.1072 1.1072 0 0 0-0.512-0.1856c0 0.0128-0.064 0.0576-0.16 0.1536L115.424 351.8528l217.3184 217.312c0.288 0.2944 0.192 0.1664 0.1984 0.1664 0.1024 0 0.384-0.1152 0.4864-0.224l0.0064-0.2304V440.1344c-22.208-6.848-38.4-27.5648-38.4-51.9936 0-29.9968 24.4032-54.4 54.4-54.4 29.9968 0 54.4 24.4032 54.4 54.4 0 24.4288-16.192 45.1456-38.4 51.9936v55.8528H607.36v-40.8768a32.3136 32.3136 0 0 1 20.0064-29.9456 32.3072 32.3072 0 0 1 35.3152 7.0272l228.6336 228.6272a16 16 0 0 1 0 22.6304l-228.6336 228.6272a32.32 32.32 0 0 1-35.3152 7.0272 32.3136 32.3136 0 0 1-20.0064-29.9392v-40.8832H345.6a16 16 0 1 1 0-32h277.76a16 16 0 0 1 16 16v56.8832c0 0.1792 0.0256 0.256 0.0256 0.256 0.064 0.064 0.3456 0.2176 0.5056 0.1792l0.1664-0.1472 217.312-217.3184-217.312-217.312c-0.2944-0.2944-0.2048-0.1664-0.2048-0.1664a0.9792 0.9792 0 0 0-0.48 0.224c0 0.0128-0.0128 0.0896-0.0128 0.2304l-0.0256 150.0672c22.208 6.848 38.4 27.5648 38.4 51.9936 0 29.9968-24.4032 54.4-54.4 54.4-29.9968 0-54.4-24.4032-54.4-54.4 0-24.4288 16.192-45.1456 38.4-51.9936V528H365.44v40.8832a32.3136 32.3136 0 0 1-20.0064 29.9392 32.3136 32.3136 0 0 1-35.3152-7.0208L81.4848 363.1616a16 16 0 0 1 0-22.624z m313.216 522.8608c-12.352 0-22.4 10.048-22.4 22.4s10.048 22.4 22.4 22.4 22.4-10.048 22.4-22.4-10.048-22.4-22.4-22.4zM349.44 365.7408c-12.352 0-22.4 10.048-22.4 22.4s10.048 22.4 22.4 22.4 22.4-10.048 22.4-22.4-10.048-22.4-22.4-22.4z" fill="#2A83FC" p-id="3381"></path><path d="M806.6944 137.3056c-24.4288 0-45.1456 16.192-51.9936 38.4h-68.1408a16 16 0 1 0 0 32h68.1408c6.848 22.208 27.5648 38.4 51.9936 38.4 29.9968 0 54.4-24.4032 54.4-54.4 0-29.9968-24.4032-54.4-54.4-54.4zM166.1056 777.9392c29.9968 0 54.4 24.4032 54.4 54.4 0 29.9968-24.4032 54.4-54.4 54.4-29.9968 0-54.4-24.4032-54.4-54.4 0-29.9968 24.4032-54.4 54.4-54.4z m0 32c-12.352 0-22.4 10.048-22.4 22.4s10.048 22.4 22.4 22.4 22.4-10.048 22.4-22.4-10.048-22.4-22.4-22.4z m106.4192 6.3424a16.0256 16.0256 0 0 1 16 16c0 4.2112-1.696 8.3392-4.6848 11.3152a16.0896 16.0896 0 0 1-11.3152 4.6848 16.1216 16.1216 0 0 1-11.3088-4.6848 16.1216 16.1216 0 0 1-4.6912-11.3152c0-4.2048 1.7152-8.3328 4.6912-11.3088a16.0512 16.0512 0 0 1 11.3088-4.6912zM578.8992 752a16 16 0 1 1 0 32H398.5024a16 16 0 1 1 0-32z m79.232-512a16 16 0 1 1 0 32H477.7344a16 16 0 1 1 0-32z m148.5632-70.688c12.352 0 22.4 10.048 22.4 22.4s-10.048 22.4-22.4 22.4a22.4256 22.4256 0 0 1-22.2528-19.904c0.128-0.8192 0.2112-1.6448 0.2112-2.496s-0.0832-1.6768-0.2112-2.496a22.4256 22.4256 0 0 1 22.2528-19.904z m-180.7936 6.4c4.2112 0 8.32 1.7152 11.3152 4.6912 2.976 2.976 4.672 7.104 4.672 11.3088 0 4.2112-1.696 8.3392-4.672 11.3152a16.1472 16.1472 0 0 1-11.3152 4.6848c-4.224 0-8.3328-1.7088-11.328-4.6848a16.1024 16.1024 0 0 1-4.672-11.3152c0-4.2048 1.696-8.3328 4.672-11.3088a16.16 16.16 0 0 1 11.328-4.6912z" fill="#2BD2FC" p-id="3382"></path></svg>