<?xml version="1.0" standalone="no"?><!DOCTYPE svg PUBLIC "-//W3C//DTD SVG 1.1//EN" "http://www.w3.org/Graphics/SVG/1.1/DTD/svg11.dtd"><svg t="1660441132738" class="icon" viewBox="0 0 1024 1024" version="1.1" xmlns="http://www.w3.org/2000/svg" p-id="6654" xmlns:xlink="http://www.w3.org/1999/xlink" width="256" height="256"><defs><style type="text/css"></style></defs><path d="M553.557333 669.162667c-82.197333 105.386667-223.850667 117.973333-299.776 95.253333-74.944-22.250667-137.301333-72.042667-174.528-141.184-37.717333-68.650667-45.930667-147.946667-23.68-223.381333 44.458667-150.848 203.52-237.866667 362.602667-198.229334 124.266667 30.933333 200.170667 126.677333 232.085333 292.992l0.490667 1.450667c0.469333 1.92 32.384 208.384 150.357333 208.384a106.88 106.88 0 0 0 106.858667-106.837333 106.88 106.88 0 0 0-106.858667-106.88c-20.309333 0-47.381333 4.373333-72.533333 22.741333l-42.048-104.917333c56.554667 5.333333 80.746667 7.253333 114.581333 9.664 102.016 8.234667 179.370667 80.256 179.370667 179.392a179.306667 179.306667 0 0 1-179.370667 179.370666c-176.96 0-219.029333-249.962667-221.930666-269.312-34.325333-179.84-118.442667-220.48-178.410667-235.456-121.344-30.464-242.709333 34.816-276.053333 148.906667-16.938667 56.576-10.176 116.522667 17.877333 168.256 28.032 51.733333 74.944 89.450667 131.498667 106.368 66.730667 19.84 201.130667 2.432 254.336-125.226667" fill="#515151" p-id="6655"></path></svg>