<?xml version="1.0" standalone="no"?><!DOCTYPE svg PUBLIC "-//W3C//DTD SVG 1.1//EN" "http://www.w3.org/Graphics/SVG/1.1/DTD/svg11.dtd"><svg t="1657542071149" class="icon" viewBox="0 0 1024 1024" version="1.1" xmlns="http://www.w3.org/2000/svg" p-id="2277" xmlns:xlink="http://www.w3.org/1999/xlink" width="128" height="128"><defs><style type="text/css"></style></defs><path d="M533.12 498.24a77.866667 77.866667 0 0 0 52.074667-73.749333c0-6.08-0.746667-11.776-1.898667-17.493334l195.392-124.288-245.546667 424.981334v-209.450667z m-101.866667-90.837333c-1.152 5.696-1.92 11.392-1.92 17.493333a78.613333 78.613333 0 0 0 52.096 73.728v227.690667L219.136 272.448l212.117333 134.954667z m123.925334-44.096a78.997333 78.997333 0 0 0-48.277334-16.725334c-18.261333 0-34.986667 6.08-48.277333 16.725334l-205.653333-131.157334h508.608l-206.4 131.157334zM850.901333 128a78.613333 78.613333 0 0 0-73.728 52.074667H237.013333A77.866667 77.866667 0 0 0 163.264 128 78.037333 78.037333 0 0 0 85.333333 205.930667a78.037333 78.037333 0 0 0 77.930667 77.930666h2.282667l277.482666 480.853334a77.290667 77.290667 0 0 0-14.442666 45.226666 78.037333 78.037333 0 0 0 77.930666 77.930667 78.037333 78.037333 0 0 0 77.930667-77.930667c0-20.138667-7.978667-38.762667-20.544-52.458666l273.706667-474.389334c3.797333 0.768 7.978667 1.130667 12.16 1.130667a78.037333 78.037333 0 0 0 77.930666-77.909333C927.701333 163.349333 893.866667 128 850.901333 128z" fill="#583ACA" p-id="2278"></path></svg>