<?xml version="1.0" standalone="no"?><!DOCTYPE svg PUBLIC "-//W3C//DTD SVG 1.1//EN" "http://www.w3.org/Graphics/SVG/1.1/DTD/svg11.dtd"><svg t="1657802693722" class="icon" viewBox="0 0 1024 1024" version="1.1" xmlns="http://www.w3.org/2000/svg" p-id="2364" width="512" height="512" xmlns:xlink="http://www.w3.org/1999/xlink"><defs><style type="text/css"></style></defs><path d="M516.266667 341.333333l-209.066667 147.2L394.666667 725.333333h247.466666l85.333334-245.333333z" fill="#4C64FE" opacity=".6" p-id="2365"></path><path d="M512 162.133333L128 441.6l147.2 452.266667h473.6L896 441.6 512 162.133333z m200.533333 674.133334H311.466667L185.6 454.4l324.266667-236.8 324.266666 236.8-121.6 381.866667z" fill="#4C64FE" p-id="2366"></path><path d="M881.066667 462.933333l-10.666667-40.533333-330.666667 87.466667V209.066667h-42.666666v296.533333L162.133333 424.533333l-10.666666 42.666667 332.8 81.066667-211.2 309.333333 36.266666 23.466667L518.4 576l202.666667 307.2 36.266666-23.466667-204.8-309.333333z" fill="#4C64FE" p-id="2367"></path></svg>