<svg height="100%" width="100%" viewBox="0 0 1480 720" xmlns="http://www.w3.org/2000/svg"><path d="M 0,720 C 0,720 0,360 0,360 C 47.38169570082917,415.90098865949403 94.76339140165834,471.80197731898807 148,436 C 201.23660859834166,400.19802268101193 260.32813009419584,272.6930793835418 316,244 C 371.67186990580416,215.30692061645826 423.92408822155846,285.425705146845 470,348 C 516.0759117784415,410.574294853155 555.9755170195705,465.6041000290782 603,466 C 650.0244829804295,466.3958999709218 704.1738437001595,412.15789473684214 752,377 C 799.8261562998405,341.84210526315786 841.3291081797914,325.76432102355335 883,360 C 924.6708918202086,394.23567897644665 966.5097235806745,478.78482116894446 1016,453 C 1065.4902764193255,427.21517883105554 1122.6319974975108,291.09639430066886 1180,297 C 1237.3680025024892,302.90360569933114 1294.9622864292826,450.8296016283804 1345,485 C 1395.0377135707174,519.1703983716196 1437.5188567853588,439.5851991858098 1480,360 C 1480,360 1480,720 1480,720 Z" stroke="none" strokewidth="0" fill="#effeffff"></path></svg>