<svg height="100%" width="100%" viewBox="0 0 1480 720" xmlns="http://www.w3.org/2000/svg"><path d="M 0,720 C 0,720 0,360 0,360 C 77.73809523809524,395.23803387334317 155.47619047619048,430.4760677466863 207,410 C 258.5238095238095,389.5239322533137 283.83333333333337,313.3337628865979 337,316 C 390.16666666666663,318.6662371134021 471.19047619047615,400.18888070692196 539,396 C 606.8095238095239,391.81111929307804 661.4047619047619,301.91071428571433 718,256 C 774.5952380952381,210.0892857142857 833.1904761904763,208.16826215022093 903,273 C 972.8095238095237,337.8317378497791 1053.8333333333333,469.4162371134021 1113,471 C 1172.1666666666667,472.5837628865979 1209.4761904761906,344.1667893961708 1267,304 C 1324.5238095238094,263.8332106038292 1402.2619047619046,311.9166053019146 1480,360 C 1480,360 1480,720 1480,720 Z" stroke="none" strokewidth="0" fill="#dff9fbff"></path></svg>