<?xml version="1.0" encoding="UTF-8"?>
<svg width="80px" height="80px" viewBox="0 0 80 80" version="1.1" xmlns="http://www.w3.org/2000/svg" xmlns:xlink="http://www.w3.org/1999/xlink">
    <title>编组</title>
    <defs>
        <polygon id="path-1" points="0 72 72 72 72 0 0 0"></polygon>
    </defs>
    <g id="页面-1" stroke="none" stroke-width="1" fill="none" fill-rule="evenodd">
        <g id="首页" transform="translate(-529.000000, -1082.000000)">
            <g id="编组-19" transform="translate(440.500000, 1082.000000)">
                <g id="编组-20" transform="translate(88.500000, 0.000000)">
                    <g id="编组" transform="translate(4.500000, 4.000000)">
                        <polygon id="Fill-1" fill="#769AFF" points="0 72 72 72 72 11.25 0 11.25"></polygon>
                        <polygon id="Fill-2" fill="#556DD3" points="0 11.25 72 11.25 72 0 0 0"></polygon>
                        <g>
                            <path d="M67.092,4.626 C66.564,4.1085 65.6295,4.1085 65.1,4.626 C64.842,4.896 64.6845,5.256 64.6845,5.628 C64.6845,5.9985 64.842,6.3585 65.1,6.6165 C65.3595,6.876 65.7195,7.0335 66.0915,7.0335 C66.462,7.0335 66.822,6.876 67.092,6.6165 C67.35,6.3585 67.497,5.988 67.497,5.628 C67.497,5.256 67.35,4.896 67.092,4.626" id="Fill-3" fill="#8DDEF1"></path>
                            <path d="M59.34075,4.22175 C58.56375,4.22175 57.93525,4.85175 57.93525,5.62725 C57.93525,6.40275 58.56375,7.03425 59.34075,7.03425 C60.11775,7.03425 60.74625,6.40275 60.74625,5.62725 C60.74625,4.85175 60.11775,4.22175 59.34075,4.22175" id="Fill-5" fill="#8DDEF1"></path>
                            <path d="M51.6006,4.626 C51.3426,4.8855 51.1851,5.256 51.1851,5.628 C51.1851,5.9985 51.3426,6.3585 51.6006,6.6165 C51.8586,6.876 52.2201,7.0335 52.5906,7.0335 C52.9611,7.0335 53.3211,6.876 53.5926,6.6165 C53.8506,6.3585 53.9976,5.988 53.9976,5.628 C53.9976,5.256 53.8506,4.896 53.5926,4.626 C53.0631,4.1085 52.1286,4.1085 51.6006,4.626" id="Fill-7" fill="#8DDEF1"></path>
                            <polygon id="Fill-9" fill="#F8B55B" points="24.3969 24.51705 14.9649 38.32905 24.3969 52.14405 26.2554 50.87355 17.6889 38.32905 26.2554 25.78605"></polygon>
                            <polygon id="Fill-11" fill="#F8B55B" points="47.60235 24.51705 45.74385 25.78605 54.31035 38.32905 45.74385 50.87355 47.60235 52.14405 57.03585 38.32905"></polygon>
                            <polygon id="Fill-13" fill="#F8B55B" points="29.3394 51.06735 31.4094 51.95085 42.6594 25.59285 40.5894 24.70935"></polygon>
                            <mask id="mask-2" fill="white">
                                <use xlink:href="#path-1"></use>
                            </mask>
                            <g id="Clip-16"></g>
                            <polygon id="Fill-15" fill="#F8B55B" mask="url(#mask-2)" points="8.487 19.6875 12.4245 19.6875 12.4245 17.4375 8.487 17.4375"></polygon>
                            <polygon id="Fill-17" fill="#F8B55B" mask="url(#mask-2)" points="8.487 26.2755 12.4245 26.2755 12.4245 24.0255 8.487 24.0255"></polygon>
                            <polygon id="Fill-18" fill="#F8B55B" mask="url(#mask-2)" points="8.487 39.4545 12.4245 39.4545 12.4245 37.2045 8.487 37.2045"></polygon>
                            <polygon id="Fill-19" fill="#F8B55B" mask="url(#mask-2)" points="8.487 52.6335 12.4245 52.6335 12.4245 50.3835 8.487 50.3835"></polygon>
                            <polygon id="Fill-20" fill="#F8B55B" mask="url(#mask-2)" points="8.487 59.223 12.4245 59.223 12.4245 56.973 8.487 56.973"></polygon>
                            <polygon id="Fill-21" fill="#8DDEF1" mask="url(#mask-2)" points="15.978 59.223 29.0445 59.223 29.0445 56.973 15.978 56.973"></polygon>
                            <polygon id="Fill-22" fill="#8DDEF1" mask="url(#mask-2)" points="8.4855 46.044 15.951 46.044 15.951 43.794 8.4855 43.794"></polygon>
                            <polygon id="Fill-23" fill="#8DDEF1" mask="url(#mask-2)" points="38.8635 46.044 46.329 46.044 46.329 43.794 38.8635 43.794"></polygon>
                            <polygon id="Fill-24" fill="#8DDEF1" mask="url(#mask-2)" points="26.2455 32.865 34.1205 32.865 34.1205 30.615 26.2455 30.615"></polygon>
                            <polygon id="Fill-25" fill="#8DDEF1" mask="url(#mask-2)" points="15.978 19.6875 25.362 19.6875 25.362 17.4375 15.978 17.4375"></polygon>
                            <polygon id="Fill-26" fill="#8DDEF1" mask="url(#mask-2)" points="29.211 26.2755 35.961 26.2755 35.961 24.0255 29.211 24.0255"></polygon>
                            <polygon id="Fill-27" fill="#8DDEF1" mask="url(#mask-2)" points="22.728 39.4545 30.5775 39.4545 30.5775 37.2045 22.728 37.2045"></polygon>
                            <polygon id="Fill-28" fill="#8DDEF1" mask="url(#mask-2)" points="59.8575 39.4545 63.207 39.4545 63.207 37.2045 59.8575 37.2045"></polygon>
                            <polygon id="Fill-29" fill="#8DDEF1" mask="url(#mask-2)" points="56.4825 32.865 60.9555 32.865 60.9555 30.615 56.4825 30.615"></polygon>
                            <polygon id="Fill-30" fill="#8DDEF1" mask="url(#mask-2)" points="33.57 59.223 43.8735 59.223 43.8735 56.973 33.57 56.973"></polygon>
                            <polygon id="Fill-31" fill="#8DDEF1" mask="url(#mask-2)" points="48.1965 59.223 63.2055 59.223 63.2055 56.973 48.1965 56.973"></polygon>
                            <polygon id="Fill-32" fill="#8DDEF1" mask="url(#mask-2)" points="15.978 52.6335 20.145 52.6335 20.145 50.3835 15.978 50.3835"></polygon>
                            <polygon id="Fill-33" fill="#8DDEF1" mask="url(#mask-2)" points="51.675 52.6335 63.207 52.6335 63.207 50.3835 51.675 50.3835"></polygon>
                            <polygon id="Fill-34" fill="#8DDEF1" mask="url(#mask-2)" points="8.487 65.8125 21.066 65.8125 21.066 63.5625 8.487 63.5625"></polygon>
                            <polygon id="Fill-35" fill="#8DDEF1" mask="url(#mask-2)" points="42.879 19.6875 49.398 19.6875 49.398 17.4375 42.879 17.4375"></polygon>
                            <polygon id="Fill-36" fill="#8DDEF1" mask="url(#mask-2)" points="53.925 19.6875 63.513 19.6875 63.513 17.4375 53.925 17.4375"></polygon>
                            <polygon id="Fill-37" fill="#556DD3" mask="url(#mask-2)" points="52.902 26.2755 60.138 26.2755 60.138 24.0255 52.902 24.0255"></polygon>
                            <polygon id="Fill-38" fill="#556DD3" mask="url(#mask-2)" points="29.889 19.6875 38.352 19.6875 38.352 17.4375 29.889 17.4375"></polygon>
                            <polygon id="Fill-39" fill="#556DD3" mask="url(#mask-2)" points="15.978 26.2755 20.145 26.2755 20.145 24.0255 15.978 24.0255"></polygon>
                            <polygon id="Fill-40" fill="#556DD3" mask="url(#mask-2)" points="41.856 39.4545 49.7055 39.4545 49.7055 37.2045 41.856 37.2045"></polygon>
                            <polygon id="Fill-41" fill="#556DD3" mask="url(#mask-2)" points="8.487 32.865 15.543 32.865 15.543 30.615 8.487 30.615"></polygon>
                            <polygon id="Fill-42" fill="#556DD3" mask="url(#mask-2)" points="34.581 52.6335 43.581 52.6335 43.581 50.3835 34.581 50.3835"></polygon>
                            <polygon id="Fill-43" fill="#556DD3" mask="url(#mask-2)" points="25.593 65.8125 38.454 65.8125 38.454 63.5625 25.593 63.5625"></polygon>
                        </g>
                    </g>
                </g>
            </g>
        </g>
    </g>
</svg>