<?xml version="1.0" encoding="UTF-8"?>
<svg width="80px" height="80px" viewBox="0 0 80 80" version="1.1" xmlns="http://www.w3.org/2000/svg" xmlns:xlink="http://www.w3.org/1999/xlink">
    <title>编组</title>
    <defs>
        <polygon id="path-1" points="0 72 72 72 72 0 0 0"></polygon>
    </defs>
    <g id="页面-1" stroke="none" stroke-width="1" fill="none" fill-rule="evenodd">
        <g id="首页" transform="translate(-1313.000000, -1251.000000)">
            <g id="编组-19备份-5" transform="translate(1224.500000, 1251.000000)">
                <g id="编组-25" transform="translate(88.500000, 0.000000)">
                    <g id="编组" transform="translate(4.000000, 4.000000)">
                        <polygon id="Fill-1" fill="#769AFF" points="0 72 72 72 72 11.25 0 11.25"></polygon>
                        <polygon id="Fill-2" fill="#556DD3" points="0 11.25 72 11.25 72 0 0 0"></polygon>
                        <g>
                            <path d="M67.0899,4.63035 C66.5619,4.11135 65.6274,4.09935 65.0994,4.63035 C64.8399,4.89885 64.6824,5.25885 64.6824,5.62935 C64.6824,5.98935 64.8399,6.36135 65.0994,6.62085 C65.3589,6.88035 65.7294,7.02585 66.0894,7.02585 C66.4614,7.02585 66.8214,6.88035 67.0899,6.62085 C67.3494,6.36135 67.4949,5.98935 67.4949,5.62935 C67.4949,5.25885 67.3494,4.89885 67.0899,4.63035" id="Fill-3" fill="#8DDEF1"></path>
                            <path d="M59.9019,4.2129 C59.1264,4.2129 58.5069,4.8549 58.5069,5.6289 C58.5069,6.3939 59.1264,7.0359 59.9019,7.0359 C60.6789,7.0359 61.3074,6.3939 61.3074,5.6289 C61.3074,4.8549 60.6789,4.2129 59.9019,4.2129" id="Fill-5" fill="#8DDEF1"></path>
                            <path d="M52.72425,4.63035 C52.46475,4.88685 52.30875,5.25885 52.30875,5.61885 C52.30875,5.98935 52.46475,6.34935 52.72425,6.62085 C52.98375,6.88035 53.35425,7.02585 53.71425,7.02585 C54.08625,7.02585 54.44625,6.88035 54.71475,6.62085 C54.97425,6.34935 55.12125,5.98935 55.12125,5.61885 C55.12125,5.25885 54.97425,4.89885 54.71475,4.63035 C54.18675,4.09935 53.25225,4.09935 52.72425,4.63035" id="Fill-7" fill="#8DDEF1"></path>
                            <mask id="mask-2" fill="white">
                                <use xlink:href="#path-1"></use>
                            </mask>
                            <g id="Clip-10"></g>
                            <polygon id="Fill-9" fill="#556DD3" mask="url(#mask-2)" points="34.875 35.844 37.125 35.844 37.125 29.754 34.875 29.754"></polygon>
                            <polygon id="Fill-11" fill="#556DD3" mask="url(#mask-2)" points="20.8125 22.44285 12.0945 22.44285 12.0945 35.84535 14.3445 35.84535 14.3445 24.69285 20.8125 24.69285"></polygon>
                            <polygon id="Fill-12" fill="#556DD3" mask="url(#mask-2)" points="51.1875 22.44285 51.1875 24.69285 57.6555 24.69285 57.6555 35.84535 59.9055 35.84535 59.9055 22.44285"></polygon>
                            <polygon id="Fill-13" fill="#556DD3" mask="url(#mask-2)" points="12.0945 54.3345 14.3445 54.3345 14.3445 48.2205 12.0945 48.2205"></polygon>
                            <polygon id="Fill-14" fill="#556DD3" mask="url(#mask-2)" points="20.8125 61.62 28.4055 61.62 28.4055 59.37 20.8125 59.37"></polygon>
                            <polygon id="Fill-15" fill="#556DD3" mask="url(#mask-2)" points="57.657 54.3075 59.907 54.3075 59.907 48.219 57.657 48.219"></polygon>
                            <polygon id="Fill-16" fill="#8DDEF1" mask="url(#mask-2)" points="20.8125 29.7555 51.1875 29.7555 51.1875 17.3805 20.8125 17.3805"></polygon>
                            <polygon id="Fill-17" fill="#8DDEF1" mask="url(#mask-2)" points="51.1875 48.219 66.375 48.219 66.375 35.844 51.1875 35.844"></polygon>
                            <polygon id="Fill-18" fill="#8DDEF1" mask="url(#mask-2)" points="5.625 48.219 20.8125 48.219 20.8125 35.844 5.625 35.844"></polygon>
                            <polygon id="Fill-19" fill="#F8B55B" mask="url(#mask-2)" points="5.625 66.6825 20.8125 66.6825 20.8125 54.3075 5.625 54.3075"></polygon>
                            <path d="M40.21875,35.84475 L31.78125,35.84475 C29.91675,35.84475 28.40625,37.35675 28.40625,39.21975 L28.40625,44.84475 C28.40625,46.70925 29.91675,48.21975 31.78125,48.21975 L40.21875,48.21975 C42.08175,48.21975 43.59375,46.70925 43.59375,44.84475 L43.59375,39.21975 C43.59375,37.35675 42.08175,35.84475 40.21875,35.84475" id="Fill-20" fill="#F8B55B" mask="url(#mask-2)"></path>
                            <path d="M63,54.30765 L54.5625,54.30765 C52.698,54.30765 51.1875,55.81965 51.1875,57.68265 L51.1875,63.30765 C51.1875,65.17065 52.698,66.68265 54.5625,66.68265 L63,66.68265 C64.863,66.68265 66.375,65.17065 66.375,63.30765 L66.375,57.68265 C66.375,55.81965 64.863,54.30765 63,54.30765" id="Fill-21" fill="#F8B55B" mask="url(#mask-2)"></path>
                            <path d="M40.21875,54.30765 L31.78125,54.30765 C29.91675,54.30765 28.40625,55.81965 28.40625,57.68265 L28.40625,63.30765 C28.40625,65.17065 29.91675,66.68265 31.78125,66.68265 L40.21875,66.68265 C42.08175,66.68265 43.59375,65.17065 43.59375,63.30765 L43.59375,57.68265 C43.59375,55.81965 42.08175,54.30765 40.21875,54.30765" id="Fill-22" fill="#8DDEF1" mask="url(#mask-2)"></path>
                        </g>
                    </g>
                </g>
            </g>
        </g>
    </g>
</svg>