<?xml version="1.0" encoding="UTF-8"?>
<svg width="80px" height="80px" viewBox="0 0 80 80" version="1.1" xmlns="http://www.w3.org/2000/svg" xmlns:xlink="http://www.w3.org/1999/xlink">
    <title>编组</title>
    <defs>
        <polygon id="path-1" points="0 70 72 70 72 0 0 0"></polygon>
    </defs>
    <g id="页面-1" stroke="none" stroke-width="1" fill="none" fill-rule="evenodd">
        <g id="首页" transform="translate(-529.000000, -1251.000000)">
            <g id="编组-19备份-3" transform="translate(440.500000, 1251.000000)">
                <g id="编组-23" transform="translate(88.500000, 0.000000)">
                    <g id="编组" transform="translate(4.500000, 5.000000)">
                        <path d="M0,65.4839681 L0,4.51753726 C0,2.0231823 2.0145,0 4.5,0 L23.7945,0 C25.2105,0 26.544,0.668372723 27.3945,1.80641277 L31.4445,7.22715641 C32.295,8.3636911 33.6285,9.03356917 35.0445,9.03356917 L67.5,9.03356917 C69.9855,9.03356917 72,11.0552461 72,13.5496011 L72,65.4839681 C72,67.9768177 69.9855,70 67.5,70 L4.5,70 C2.0145,70 0,67.9768177 0,65.4839681" id="Fill-1" fill="#556DD3"></path>
                        <mask id="mask-2" fill="white">
                            <use xlink:href="#path-1"></use>
                        </mask>
                        <g id="Clip-4"></g>
                        <polygon id="Fill-3" fill="#8DDEF1" mask="url(#mask-2)" points="7.8735 10.1625771 23.6235 10.1625771 23.6235 7.90456119 7.8735 7.90456119"></polygon>
                        <path d="M67.5,16.936625 L35.0445,16.936625 C33.6285,16.936625 32.295,17.6065031 31.4445,18.7415324 L27.3945,24.1622761 C26.544,25.3003161 25.2105,25.9686888 23.7945,25.9686888 L4.5,25.9686888 C2.0145,25.9686888 0,27.9903658 0,30.4847208 L0,65.4839681 C0,67.9768177 2.0145,70 4.5,70 L67.5,70 C69.9855,70 72,67.9768177 72,65.4839681 L72,21.4526569 C72,18.958302 69.9855,16.936625 67.5,16.936625" id="Fill-5" fill="#769AFF" mask="url(#mask-2)"></path>
                        <polygon id="Fill-6" fill="#F8B55B" mask="url(#mask-2)" points="49.5675 36.6114707 58.5 36.6114707 58.5 34.3534548 49.5675 34.3534548"></polygon>
                        <polygon id="Fill-7" fill="#F8B55B" mask="url(#mask-2)" points="30.4905 49.7832305 58.5 49.7832305 58.5 47.5252145 30.4905 47.5252145"></polygon>
                        <polygon id="Fill-8" fill="#F8B55B" mask="url(#mask-2)" points="41.7225 61.8274876 58.5 61.8274876 58.5 59.5694716 41.7225 59.5694716"></polygon>
                        <polygon id="Fill-9" fill="#8DDEF1" mask="url(#mask-2)" points="41.69385 36.5943098 41.69235 34.3362938 13.49985 34.354358 13.50135 36.6123739"></polygon>
                        <polygon id="Fill-10" fill="#8DDEF1" mask="url(#mask-2)" points="22.62375 49.713232 22.60575 47.455216 13.49175 47.5259672 13.50825 49.7839831"></polygon>
                        <polygon id="Fill-11" fill="#8DDEF1" mask="url(#mask-2)" points="13.5 61.8274876 33.837 61.8274876 33.837 59.5694716 13.5 59.5694716"></polygon>
                        <path d="M45.6306,31.5137739 C43.4646,31.5137739 41.6931,33.2915851 41.6931,35.4653018 C41.6931,37.6375132 43.4646,39.4168297 45.6306,39.4168297 C47.7966,39.4168297 49.5681,37.6375132 49.5681,35.4653018 C49.5681,33.2915851 47.7966,31.5137739 45.6306,31.5137739" id="Fill-12" fill="#769AFF" mask="url(#mask-2)"></path>
                        <path d="M26.55255,44.6326961 C24.38655,44.6326961 22.61505,46.4120126 22.61505,48.584224 C22.61505,50.7579407 24.38655,52.5357519 26.55255,52.5357519 C28.71705,52.5357519 30.49005,50.7579407 30.49005,48.584224 C30.49005,46.4120126 28.71705,44.6326961 26.55255,44.6326961" id="Fill-13" fill="#769AFF" mask="url(#mask-2)"></path>
                        <path d="M37.7841,56.7474033 C35.6196,56.7474033 33.8466,58.5252145 33.8466,60.6989312 C33.8466,62.8696372 35.6196,64.6504591 37.7841,64.6504591 C39.9501,64.6504591 41.7216,62.8696372 41.7216,60.6989312 C41.7216,58.5252145 39.9501,56.7474033 37.7841,56.7474033" id="Fill-14" fill="#769AFF" mask="url(#mask-2)"></path>
                        <path d="M45.6306,38.2878218 C44.0796,38.2878218 42.8181,37.0218275 42.8181,35.4653018 C42.8181,33.9087762 44.0796,32.6427819 45.6306,32.6427819 C47.1816,32.6427819 48.4431,33.9087762 48.4431,35.4653018 C48.4431,37.0218275 47.1816,38.2878218 45.6306,38.2878218 M45.6306,30.3847659 C42.8391,30.3847659 40.5681,32.6638567 40.5681,35.4653018 C40.5681,38.2652416 42.8391,40.5458377 45.6306,40.5458377 C48.4221,40.5458377 50.6931,38.2652416 50.6931,35.4653018 C50.6931,32.6638567 48.4221,30.3847659 45.6306,30.3847659" id="Fill-15" fill="#556DD3" mask="url(#mask-2)"></path>
                        <path d="M26.55255,51.4067439 C25.00155,51.4067439 23.74005,50.1407497 23.74005,48.584224 C23.74005,47.0292037 25.00155,45.761704 26.55255,45.761704 C28.10355,45.761704 29.36505,47.0292037 29.36505,48.584224 C29.36505,50.1407497 28.10355,51.4067439 26.55255,51.4067439 M26.55255,43.5036881 C23.76105,43.5036881 21.49005,45.7842842 21.49005,48.584224 C21.49005,51.3856691 23.76105,53.6647599 26.55255,53.6647599 C29.34405,53.6647599 31.61505,51.3856691 31.61505,48.584224 C31.61505,45.7842842 29.34405,43.5036881 26.55255,43.5036881" id="Fill-16" fill="#556DD3" mask="url(#mask-2)"></path>
                        <path d="M37.78485,63.5214512 C36.23385,63.5214512 34.97235,62.2524462 34.97235,60.6989312 C34.97235,59.1424055 36.23385,57.8764113 37.78485,57.8764113 C39.33585,57.8764113 40.59735,59.1424055 40.59735,60.6989312 C40.59735,62.2524462 39.33585,63.5214512 37.78485,63.5214512 M37.78485,55.6183953 C34.99335,55.6183953 32.72235,57.8959807 32.72235,60.6989312 C32.72235,63.498871 34.99335,65.7794671 37.78485,65.7794671 C40.57635,65.7794671 42.84735,63.498871 42.84735,60.6989312 C42.84735,57.8959807 40.57635,55.6183953 37.78485,55.6183953" id="Fill-17" fill="#556DD3" mask="url(#mask-2)"></path>
                    </g>
                </g>
            </g>
        </g>
    </g>
</svg>