<?xml version="1.0" encoding="UTF-8"?>
<svg width="81px" height="80px" viewBox="0 0 81 80" version="1.1" xmlns="http://www.w3.org/2000/svg" xmlns:xlink="http://www.w3.org/1999/xlink">
    <title>编组</title>
    <defs>
        <polygon id="path-1" points="0 0 39.9996667 0 39.9996667 71.9633333 0 71.9633333"></polygon>
    </defs>
    <g id="页面-1" stroke="none" stroke-width="1" fill="none" fill-rule="evenodd">
        <g id="首页" transform="translate(-1315.000000, -1082.000000)">
            <g id="编组-19备份-2" transform="translate(1224.500000, 1082.000000)">
                <g id="编组" transform="translate(90.500000, 0.000000)">
                    <path d="M60.0235,45.5451667 C57.8168333,45.5451667 56.0301667,43.7568333 56.0301667,41.5518333 C56.0301667,39.3451667 57.8168333,37.5568333 60.0235,37.5568333 L51.3085,37.5568333 C49.1035,37.5568333 47.3168333,35.7701667 47.3168333,33.5651667 C47.3168333,31.3568333 49.1035,29.5701667 51.3085,29.5701667 L65.7268333,29.5701667 C61.5301667,19.4968333 51.5935,12.4118333 40.0001667,12.4118333 C31.8135,12.4118333 24.4501667,15.9451667 19.3551667,21.5668333 L26.8501667,21.5668333 C29.0551667,21.5668333 30.8435,23.3568333 30.8435,25.5618333 C30.8435,27.7685 29.0551667,29.5551667 26.8501667,29.5551667 L32.6585,29.5551667 C34.8651667,29.5551667 36.6535,31.3435 36.6535,33.5501667 C36.6535,35.7551667 34.8651667,37.5435 32.6585,37.5435 L21.0401667,37.5435 C23.2468333,37.5435 25.0335,39.3301667 25.0335,41.5368333 C25.0335,43.7418333 23.2468333,45.5301667 21.0401667,45.5301667 L39.2201667,45.5585 C41.4251667,45.5585 43.2135,47.3468333 43.2135,49.5518333 C43.2135,51.7585 41.4251667,53.5468333 39.2201667,53.5468333 L15.5035,53.5468333 C20.2201667,62.2318333 29.4218333,68.1301667 40.0001667,68.1301667 C46.8601667,68.1301667 53.1368333,65.6451667 57.9901667,61.5335 L52.7618333,61.5335 C50.5551667,61.5335 48.7685,59.7451667 48.7685,57.5385 C48.7685,55.3335 50.5551667,53.5468333 52.7618333,53.5468333 L64.4985,53.5468333 C65.8368333,51.0801667 66.8085,48.3885 67.3535,45.5451667 L60.0235,45.5451667 Z" id="Fill-1" fill="#769AFF"></path>
                    <path d="M39.2203333,45.5581667 L21.0403333,45.5298333 C23.2453333,45.5298333 25.0336667,43.7415 25.0336667,41.5365 C25.0336667,39.3315 23.2453333,37.5431667 21.0403333,37.5431667 L32.6586667,37.5431667 C34.8653333,37.5431667 36.6536667,35.7548333 36.6536667,33.5498333 C36.6536667,31.3431667 34.8653333,29.5548333 32.6586667,29.5548333 L26.8503333,29.5548333 C29.0553333,29.5548333 30.8436667,27.7681667 30.8436667,25.5615 C30.8436667,23.3565 29.0553333,21.5665 26.8503333,21.5665 L19.3553333,21.5665 C14.8736667,26.5115 12.142,33.0715 12.142,40.2698333 C12.142,45.0781667 13.3586667,49.5998333 15.5036667,53.5465 L39.2203333,53.5465 C41.4253333,53.5465 43.2136667,51.7581667 43.2136667,49.5515 C43.2136667,47.3465 41.4253333,45.5581667 39.2203333,45.5581667" id="Fill-3" fill="#8DDEF1"></path>
                    <path d="M65.725,29.5703333 L51.3083333,29.5703333 C49.1033333,29.5703333 47.3166667,31.357 47.3166667,33.5636667 C47.3166667,35.7703333 49.1033333,37.557 51.3083333,37.557 L60.0233333,37.557 C57.8166667,37.557 56.03,39.3453333 56.03,41.5503333 C56.03,43.757 57.8166667,45.5453333 60.0233333,45.5453333 L67.3533333,45.5453333 C67.68,43.8353333 67.8583333,42.0753333 67.8583333,40.2703333 C67.8583333,36.4786667 67.0983333,32.8653333 65.725,29.5703333" id="Fill-5" fill="#8DDEF1"></path>
                    <path d="M48.7686667,57.539 C48.7686667,59.7456667 50.5553333,61.5323333 52.762,61.5323333 L57.9903333,61.5323333 C60.622,59.3056667 62.8386667,56.599 64.4986667,53.5456667 L52.762,53.5456667 C50.5553333,53.5456667 48.7686667,55.334 48.7686667,57.539" id="Fill-7" fill="#8DDEF1"></path>
                    <g transform="translate(0.000000, 8.036667)">
                        <mask id="mask-2" fill="white">
                            <use xlink:href="#path-1"></use>
                        </mask>
                        <g id="Clip-10"></g>
                        <path d="M3.693,31.9633333 C3.693,22.6466667 7.16466667,13.9016667 13.498,7.15166667 L15.603,9.67666667 L19.1596667,0 L9.00133333,1.75833333 L11.1213333,4.30166667 C3.94466667,11.7833333 -0.000333333333,21.5483333 -0.000333333333,31.9633333 C-0.000333333333,54.02 17.9446667,71.9633333 39.9996667,71.9633333 L39.9996667,68.2716667 C19.9796667,68.2716667 3.693,51.985 3.693,31.9633333" id="Fill-9" fill="#556DD3" mask="url(#mask-2)"></path>
                    </g>
                    <path d="M80,40 C80,17.945 62.0566667,0 40,0 L40,3.69333333 C60.0216667,3.69333333 76.3083333,19.98 76.3083333,40 C76.3083333,49.32 72.8366667,58.065 66.5033333,64.815 L64.3983333,62.29 L60.8416667,71.965 L71,70.2083333 L68.8783333,67.6633333 C76.0566667,60.185 80,50.42 80,40" id="Fill-11" fill="#556DD3"></path>
                    <path d="M57.3778333,28.5351667 C57.3778333,26.6951667 55.8861667,25.2051667 54.0478333,25.2051667 C52.2078333,25.2051667 50.7161667,26.6951667 50.7161667,28.5351667 C50.7161667,30.3768333 52.2078333,31.8668333 54.0478333,31.8668333 C55.8861667,31.8668333 57.3778333,30.3768333 57.3778333,28.5351667" id="Fill-13" fill="#F8B55B"></path>
                    <path d="M41.1343333,40.9765 C39.2943333,40.9765 37.8026667,42.4681667 37.8026667,44.3065 C37.8026667,46.1481667 39.2943333,47.6381667 41.1343333,47.6381667 C42.9743333,47.6381667 44.466,46.1481667 44.466,44.3065 C44.466,42.4681667 42.9743333,40.9765 41.1343333,40.9765" id="Fill-15" fill="#F8B55B"></path>
                    <path d="M30.3653333,18.5433333 C28.5253333,18.5433333 27.0336667,20.035 27.0336667,21.875 C27.0336667,23.715 28.5253333,25.205 30.3653333,25.205 C32.2053333,25.205 33.6953333,23.715 33.6953333,21.875 C33.6953333,20.035 32.2053333,18.5433333 30.3653333,18.5433333" id="Fill-17" fill="#F8B55B"></path>
                    <path d="M56.2108333,48.9843333 C54.3708333,48.9843333 52.8791667,50.476 52.8791667,52.3143333 C52.8791667,54.156 54.3708333,55.646 56.2108333,55.646 C58.0508333,55.646 59.5425,54.156 59.5425,52.3143333 C59.5425,50.476 58.0508333,48.9843333 56.2108333,48.9843333" id="Fill-19" fill="#F8B55B"></path>
                    <path d="M25.2368333,50.8788333 C23.3968333,50.8788333 21.9051667,52.3688333 21.9051667,54.2088333 C21.9051667,56.0505 23.3968333,57.5388333 25.2368333,57.5388333 C27.0768333,57.5388333 28.5668333,56.0505 28.5668333,54.2088333 C28.5668333,52.3688333 27.0768333,50.8788333 25.2368333,50.8788333" id="Fill-21" fill="#F8B55B"></path>
                    <path d="M44.6166667,9.082 C42.7766667,9.082 41.285,10.5736667 41.285,12.412 C41.285,14.252 42.7766667,15.742 44.6166667,15.742 C46.4566667,15.742 47.9466667,14.252 47.9466667,12.412 C47.9466667,10.5736667 46.4566667,9.082 44.6166667,9.082" id="Fill-23" fill="#F8B55B"></path>
                </g>
            </g>
        </g>
    </g>
</svg>