<?xml version="1.0" encoding="UTF-8"?>
<svg width="80px" height="80px" viewBox="0 0 80 80" version="1.1" xmlns="http://www.w3.org/2000/svg" xmlns:xlink="http://www.w3.org/1999/xlink">
    <title>编组</title>
    <defs>
        <polygon id="path-1" points="0 0 10.810045 0 10.810045 10.8504172 0 10.8504172"></polygon>
        <polygon id="path-3" points="0 0 10.811045 0 10.811045 10.8510864 0 10.8510864"></polygon>
        <polygon id="path-5" points="0 0 10.810045 0 10.810045 10.8504172 0 10.8504172"></polygon>
    </defs>
    <g id="页面-1" stroke="none" stroke-width="1" fill="none" fill-rule="evenodd">
        <g id="首页" transform="translate(-920.000000, -1081.000000)">
            <g id="编组-19备份" transform="translate(832.500000, 1081.000000)">
                <g id="编组-21" transform="translate(87.500000, 0.000000)">
                    <g id="编组" transform="translate(0.000000, 5.000000)">
                        <path d="M56.5757357,64.3183674 L23.4239309,64.3183674 L6.84886187,35.4992471 L23.4239309,6.68012687 L56.5757357,6.68012687 L73.1524715,35.4992471 L56.5757357,64.3183674 Z M75.8258159,35.4992471 C75.8258159,35.4206161 75.8241493,35.343658 75.8091492,35.265027 C75.7924825,35.1763579 75.7608157,35.0993998 75.7258155,35.0190958 C75.7074821,34.9705787 75.7041488,34.9187157 75.677482,34.8718717 L58.3807433,4.79800041 C58.3524098,4.75115637 58.310743,4.72438835 58.2790762,4.68256332 C58.2257426,4.61062427 58.1740757,4.54537721 58.1057421,4.48849517 C58.0474085,4.43495913 57.9824083,4.3964801 57.9140746,4.35632807 C57.8440744,4.31617604 57.7774074,4.27937001 57.7007404,4.25260199 C57.6174067,4.22416097 57.5340731,4.21077696 57.4457394,4.20073895 C57.3957391,4.19404694 57.350739,4.17062492 57.2974054,4.17062492 L22.7022613,4.17062492 C22.6522611,4.17062492 22.6072609,4.19404694 22.555594,4.20073895 C22.4672603,4.21077696 22.3805933,4.22416097 22.2972596,4.25427499 C22.2222593,4.27937001 22.1589257,4.31617604 22.0922587,4.35298207 C22.0205918,4.3964801 21.9539248,4.43495913 21.8905912,4.49016817 C21.8255909,4.54537721 21.7755907,4.61062427 21.7239238,4.67921732 C21.6922571,4.72271535 21.6472569,4.74948337 21.6189234,4.79800041 L4.32218468,34.8718717 C4.2955179,34.9187157 4.29385122,34.9705787 4.27385114,35.0190958 C4.238851,35.0993998 4.20885087,35.1780309 4.19218413,35.265027 C4.17718407,35.343658 4.1755174,35.4206161 4.1755174,35.4992471 C4.1755174,35.5795512 4.17718407,35.6565093 4.19218413,35.7351403 C4.20885087,35.8221364 4.238851,35.8990945 4.27385114,35.9793985 C4.29385122,36.0295886 4.2955179,36.0797786 4.32218468,36.1266226 L21.6189234,66.2004939 C21.672257,66.292509 21.7389239,66.374486 21.8089242,66.4464251 C21.8139242,66.4514441 21.8172576,66.4564631 21.8222576,66.4614821 C21.9255914,66.5652082 22.0455919,66.6404932 22.1739257,66.7007213 C22.2055925,66.7174513 22.238926,66.7274893 22.2722595,66.7408733 C22.4105934,66.7927363 22.5522606,66.8261964 22.7005946,66.8278694 L22.7022613,66.8278694 L57.2974054,66.8278694 L57.3007388,66.8278694 C57.447406,66.8261964 57.59074,66.7927363 57.7274072,66.7408733 C57.7624073,66.7274893 57.7940741,66.7174513 57.8274076,66.7007213 C57.9557415,66.6404932 58.075742,66.5652082 58.1790757,66.4614821 C58.1840758,66.4564631 58.1874091,66.4480981 58.1924091,66.4430791 C58.2624094,66.37114 58.3274097,66.292509 58.3807433,66.2004939 L75.677482,36.1266226 C75.7041488,36.0797786 75.7074821,36.0295886 75.7258155,35.9793985 C75.7608157,35.8990945 75.7924825,35.8221364 75.8091492,35.7351403 C75.8241493,35.6565093 75.8258159,35.5795512 75.8258159,35.4992471 L75.8258159,35.4992471 Z" id="Fill-1" fill="#556DD3"></path>
                        <path d="M74.5949775,34.2451654 L42.1648424,34.2451654 L58.3799099,6.05174758 C58.726578,5.45281312 58.5199105,4.68490552 57.9232413,4.33859425 C57.3249055,3.99228299 56.5599023,4.19638914 56.2149009,4.79699661 L39.9998333,32.9904144 L23.7847658,4.79699661 C23.4397643,4.19806215 22.6730945,3.99060999 22.078092,4.33859425 C21.4797562,4.68490552 21.2747553,5.45281312 21.6197567,6.05174758 L37.8348243,34.2451654 L5.40468919,34.2451654 C4.71468631,34.2451654 4.15468398,34.8056208 4.15468398,35.4999163 C4.15468398,36.1925389 4.71468631,36.7546673 5.40468919,36.7546673 L37.8348243,36.7546673 L21.6197567,64.9464121 C21.2747553,65.5453466 21.4797562,66.3132542 22.078092,66.6595654 C22.2747595,66.7733295 22.4897604,66.8285386 22.7014279,66.8285386 C23.1330964,66.8285386 23.5530981,66.6043564 23.7847658,66.2011631 L39.9998333,38.0094183 L56.2149009,66.2011631 C56.4465685,66.6043564 56.8665703,66.8285386 57.2982387,66.8285386 C57.5099063,66.8285386 57.7249072,66.7733295 57.9232413,66.6595654 C58.5199105,66.3132542 58.726578,65.5453466 58.3799099,64.9464121 L42.1648424,36.7546673 L74.5949775,36.7546673 C75.286647,36.7546673 75.8449827,36.1925389 75.8449827,35.4999163 C75.8449827,34.8056208 75.286647,34.2451654 74.5949775,34.2451654" id="Fill-3" fill="#8DDEF1"></path>
                        <g transform="translate(51.892550, 0.000000)">
                            <mask id="mask-2" fill="white">
                                <use xlink:href="#path-1"></use>
                            </mask>
                            <g id="Clip-6"></g>
                            <path d="M5.40502252,-0.000669200517 C2.42001008,-0.000669200517 0,2.42852868 0,5.42487399 C0,8.42121931 2.42001008,10.8504172 5.40502252,10.8504172 C8.39170163,10.8504172 10.810045,8.42121931 10.810045,5.42487399 C10.810045,2.42852868 8.39170163,-0.000669200517 5.40502252,-0.000669200517" id="Fill-5" fill="#769AFF" mask="url(#mask-2)"></path>
                        </g>
                        <path d="M22.7027613,60.1472406 C19.7177488,60.1472406 17.2977387,62.5764385 17.2977387,65.5744568 C17.2977387,68.5691291 19.7177488,71 22.7027613,71 C25.6894404,71 28.1077838,68.5691291 28.1077838,65.5744568 C28.1077838,62.5764385 25.6894404,60.1472406 22.7027613,60.1472406" id="Fill-7" fill="#769AFF"></path>
                        <g transform="translate(0.000000, 30.074039)">
                            <mask id="mask-4" fill="white">
                                <use xlink:href="#path-3"></use>
                            </mask>
                            <g id="Clip-10"></g>
                            <path d="M5.40602253,0 C2.41934341,0 -0.000666669444,2.42752488 -0.000666669444,5.4255432 C-0.000666669444,8.42188851 2.41934341,10.8510864 5.40602253,10.8510864 C8.39103496,10.8510864 10.811045,8.42188851 10.811045,5.4255432 C10.811045,2.42752488 8.39103496,0 5.40602253,0" id="Fill-9" fill="#769AFF" mask="url(#mask-4)"></path>
                        </g>
                        <path d="M74.5949775,30.0740386 C71.609965,30.0740386 69.189955,32.5015634 69.189955,35.4995817 C69.189955,38.4959271 71.609965,40.9251249 74.5949775,40.9251249 C77.5816566,40.9251249 80,38.4959271 80,35.4995817 C80,32.5015634 77.5816566,30.0740386 74.5949775,30.0740386" id="Fill-11" fill="#769AFF"></path>
                        <g transform="translate(17.297739, 0.000000)">
                            <mask id="mask-6" fill="white">
                                <use xlink:href="#path-5"></use>
                            </mask>
                            <g id="Clip-14"></g>
                            <path d="M5.40502252,-0.000669200517 C2.42001008,-0.000669200517 0,2.42852868 0,5.42487399 C0,8.42121931 2.42001008,10.8504172 5.40502252,10.8504172 C8.39170163,10.8504172 10.810045,8.42121931 10.810045,5.42487399 C10.810045,2.42852868 8.39170163,-0.000669200517 5.40502252,-0.000669200517" id="Fill-13" fill="#769AFF" mask="url(#mask-6)"></path>
                        </g>
                        <path d="M57.2975721,60.1472406 C54.3125596,60.1472406 51.8925496,62.5764385 51.8925496,65.5744568 C51.8925496,68.5691291 54.3125596,71 57.2975721,71 C60.2842512,71 62.7025946,68.5691291 62.7025946,65.5744568 C62.7025946,62.5764385 60.2842512,60.1472406 57.2975721,60.1472406" id="Fill-15" fill="#769AFF"></path>
                        <path d="M54.3752266,35.4999163 C54.3752266,43.4700945 47.9401998,49.9295525 40.0001667,49.9295525 C32.0618003,49.9295525 25.6251068,43.4700945 25.6251068,35.4999163 C25.6251068,27.5297382 32.0618003,21.0702802 40.0001667,21.0702802 C47.9401998,21.0702802 54.3752266,27.5297382 54.3752266,35.4999163" id="Fill-17" fill="#769AFF"></path>
                        <path d="M31.1744632,34.1635229 C30.8244618,34.5148532 30.6244609,35.0050426 30.6244609,35.50527 C30.6244609,35.9954593 30.8244618,36.4856487 31.1744632,36.835306 C31.5244647,37.1749252 32.0128001,37.3756854 32.4994687,37.3756854 C32.9861374,37.3756854 33.4744728,37.1749252 33.8244743,36.835306 C34.1744757,36.4856487 34.3744766,35.9954593 34.3744766,35.50527 C34.3744766,35.0050426 34.1744757,34.5265642 33.8244743,34.1769069 C33.1378047,33.4725734 31.8627994,33.4725734 31.1744632,34.1635229" id="Fill-19" fill="#F8B55B"></path>
                        <path d="M40.0001667,33.6226416 C38.961829,33.6226416 38.1251589,34.4641612 38.1251589,35.493057 C38.1251589,36.5336638 38.961829,37.3868945 40.0001667,37.3868945 C41.0368377,37.3868945 41.8751745,36.5336638 41.8751745,35.493057 C41.8751745,34.4641612 41.0368377,33.6226416 40.0001667,33.6226416" id="Fill-21" fill="#F8B55B"></path>
                        <path d="M48.8242034,34.1635229 C48.1258672,33.4725734 46.875862,33.4725734 46.1741924,34.1635229 C45.8258576,34.5148532 45.6258568,35.0050426 45.6258568,35.4935589 C45.6258568,35.9954593 45.8258576,36.4856487 46.1741924,36.835306 C46.5241939,37.1866363 47.0125292,37.3873964 47.5008646,37.3873964 C47.9875333,37.3873964 48.474202,37.1866363 48.8242034,36.835306 C49.1742049,36.4856487 49.3758724,35.9954593 49.3758724,35.4935589 C49.3758724,35.0050426 49.1742049,34.5148532 48.8242034,34.1635229" id="Fill-23" fill="#F8B55B"></path>
                    </g>
                </g>
            </g>
        </g>
    </g>
</svg>