<?xml version="1.0" encoding="UTF-8"?>
<svg width="80px" height="80px" viewBox="0 0 80 80" version="1.1" xmlns="http://www.w3.org/2000/svg" xmlns:xlink="http://www.w3.org/1999/xlink">
    <title>编组</title>
    <defs>
        <polygon id="path-1" points="0 68 72 68 72 0 0 0"></polygon>
    </defs>
    <g id="页面-1" stroke="none" stroke-width="1" fill="none" fill-rule="evenodd">
        <g id="首页" transform="translate(-921.000000, -1250.000000)">
            <g id="编组-19备份-4" transform="translate(832.500000, 1250.000000)">
                <g id="编组-24" transform="translate(88.500000, 0.000000)">
                    <g id="编组" transform="translate(4.000000, 6.000000)">
                        <path d="M68.625,0 L3.375,0 C1.512,0 0,1.51177834 0,3.37785628 L0,50.5477426 L36,50.5477426 L72,50.5477426 L72,3.37785628 C72,1.51177834 70.4895,0 68.625,0" id="Fill-1" fill="#8DDEF1"></path>
                        <polygon id="Fill-3" fill="#556DD3" points="47.25075 64.6221437 35.99925 64.6221437 24.74925 64.6221437 28.12425 58.4294072 35.99925 58.4294072 43.87425 58.4294072"></polygon>
                        <path d="M0,50.5477426 L0,55.0515509 C0,56.9161276 1.512,58.4294072 3.375,58.4294072 L68.625,58.4294072 C70.4895,58.4294072 72,56.9161276 72,55.0515509 L72,50.5477426 L0,50.5477426 Z" id="Fill-5" fill="#769AFF"></path>
                        <mask id="mask-2" fill="white">
                            <use xlink:href="#path-1"></use>
                        </mask>
                        <g id="Clip-8"></g>
                        <polygon id="Fill-7" fill="#769AFF" mask="url(#mask-2)" points="18.189 68 53.8125 68 53.8125 64.6221437 18.189 64.6221437"></polygon>
                        <path d="M61.05105,35.9762711 C59.03355,35.9762711 57.39855,37.6141561 57.39855,39.6333635 C57.39855,41.6525709 59.03355,43.2889546 61.05105,43.2889546 C63.06855,43.2889546 64.70505,41.6525709 64.70505,39.6333635 C64.70505,37.6141561 63.06855,35.9762711 61.05105,35.9762711" id="Fill-9" fill="#F8B55B" mask="url(#mask-2)"></path>
                        <path d="M31.6509,7.25863782 C29.6334,7.25863782 27.9969,8.89502153 27.9969,10.9142289 C27.9969,12.9334364 29.6334,14.5698201 31.6509,14.5698201 C33.6684,14.5698201 35.3034,12.9334364 35.3034,10.9142289 C35.3034,8.89502153 33.6684,7.25863782 31.6509,7.25863782" id="Fill-10" fill="#F8B55B" mask="url(#mask-2)"></path>
                        <path d="M46.81785,18.2278132 C44.80035,18.2278132 43.16385,19.8641969 43.16385,21.8834043 C43.16385,23.9026118 44.80035,25.5389955 46.81785,25.5389955 C48.83535,25.5389955 50.47185,23.9026118 50.47185,21.8834043 C50.47185,19.8641969 48.83535,18.2278132 46.81785,18.2278132" id="Fill-11" fill="#F8B55B" mask="url(#mask-2)"></path>
                        <path d="M10.9497,27.7032255 C8.9322,27.7032255 7.2957,29.3396092 7.2957,31.3573154 C7.2957,33.3765228 8.9322,35.015909 10.9497,35.015909 C12.9672,35.015909 14.6037,33.3765228 14.6037,31.3573154 C14.6037,29.3396092 12.9672,27.7032255 10.9497,27.7032255" id="Fill-12" fill="#F8B55B" mask="url(#mask-2)"></path>
                        <polygon id="Fill-13" fill="#769AFF" mask="url(#mask-2)" points="56.1804 39.632763 51.3234 36.8253891 51.3234 38.5068109 44.4954 38.5068109 38.9589 32.9656253 37.3674 34.556971 43.5639 40.7587151 51.3234 40.7587151 51.3234 42.4401369"></polygon>
                        <polygon id="Fill-14" fill="#769AFF" mask="url(#mask-2)" points="41.9472 21.8828038 37.0902 19.0769312 37.0902 20.7568517 32.7762 20.7568517 32.7762 16.8220245 30.5262 16.8220245 30.5262 23.0087559 37.0902 23.0087559 37.0902 24.6901777"></polygon>
                        <path d="M35.7627,30.2321139 L34.9197,30.2321139 C34.2972,30.2321139 33.7947,30.7365405 33.7947,31.358066 C33.7947,31.9810928 34.2972,32.4840181 34.9197,32.4840181 L35.7627,32.4840181 C36.3837,32.4840181 36.8877,31.9810928 36.8877,31.358066 C36.8877,30.7365405 36.3837,30.2321139 35.7627,30.2321139" id="Fill-15" fill="#556DD3" mask="url(#mask-2)"></path>
                        <path d="M24.7236,30.2321139 L23.1141,30.2321139 C22.4931,30.2321139 21.9891,30.7365405 21.9891,31.358066 C21.9891,31.9810928 22.4931,32.4840181 23.1141,32.4840181 L24.7236,32.4840181 C25.3446,32.4840181 25.8486,31.9810928 25.8486,31.358066 C25.8486,30.7365405 25.3446,30.2321139 24.7236,30.2321139" id="Fill-16" fill="#556DD3" mask="url(#mask-2)"></path>
                        <path d="M30.62625,30.2321139 L29.01675,30.2321139 C28.39575,30.2321139 27.89175,30.7365405 27.89175,31.358066 C27.89175,31.9810928 28.39575,32.4840181 29.01675,32.4840181 L30.62625,32.4840181 C31.24725,32.4840181 31.75125,31.9810928 31.75125,31.358066 C31.75125,30.7365405 31.24725,30.2321139 30.62625,30.2321139" id="Fill-17" fill="#556DD3" mask="url(#mask-2)"></path>
                        <path d="M18.8217,30.2321139 L17.9787,30.2321139 C17.3562,30.2321139 16.8537,30.7365405 16.8537,31.358066 C16.8537,31.9810928 17.3562,32.4840181 17.9787,32.4840181 L18.8217,32.4840181 C19.4427,32.4840181 19.9467,31.9810928 19.9467,31.358066 C19.9467,30.7365405 19.4427,30.2321139 18.8217,30.2321139" id="Fill-18" fill="#556DD3" mask="url(#mask-2)"></path>
                        <polygon id="Fill-19" fill="#556DD3" mask="url(#mask-2)" points="21.92355 9.93134783 16.76655 9.93134783 9.82455 16.8807241 9.82455 25.4499702 12.07455 25.4499702 12.07455 17.8130125 17.69805 12.183252 21.92355 12.183252 21.92355 13.8646738 26.78055 11.0572999 21.92355 8.25142731"></polygon>
                        <polygon id="Fill-20" fill="#556DD3" mask="url(#mask-2)" points="62.17605 29.8964301 62.17605 20.7567016 52.72155 20.7567016 52.72155 23.0086058 59.92605 23.0086058 59.92605 29.8964301 58.24605 29.8964301 61.05105 34.7575406 63.85605 29.8964301"></polygon>
                    </g>
                </g>
            </g>
        </g>
    </g>
</svg>