<?xml version="1.0" standalone="no"?><!DOCTYPE svg PUBLIC "-//W3C//DTD SVG 1.1//EN" "http://www.w3.org/Graphics/SVG/1.1/DTD/svg11.dtd"><svg t="1658055552084" class="icon" viewBox="0 0 1220 1024" version="1.1" xmlns="http://www.w3.org/2000/svg" p-id="3256" xmlns:xlink="http://www.w3.org/1999/xlink" width="57.1875" height="48"><defs><style type="text/css"></style></defs><path d="M903.830212 959.568539c27.357803-23.522597 54.971286-47.045194 82.329089-70.82347 9.460175-8.181773 19.687391-16.363546 28.891885-25.056679-7.414732-9.460175-19.943071-16.107865-30.425968-20.198752-21.221473-8.181773-42.442946-5.369288-61.874656 5.880649-25.56804 14.829463-36.562297 38.35206-35.539576 67.755306 0.25568 11.505618 3.579526 22.755556 9.715855 32.471411 1.789763 3.579526 4.346567 6.903371 6.903371 9.971535m31.70437 22.244195c13.551061 4.602247 28.891885 4.090886 42.698626 1.534082 7.159051-3.068165 25.056679-10.994257 31.70437-9.715855l1.022722 0.255681 1.022721 0.51136c4.090886 2.045443 7.926092 4.857928 9.971536 8.948814 4.857928 9.715855 2.556804 19.43171-6.903371 24.800999l-3.068165 1.789763c-35.028215 20.198752-72.357553 17.386267-107.385768-1.534082-16.619226-8.948814-29.403246-22.499875-38.86342-38.863421l-2.301124-3.835206c-22.499875-39.119101-19.43171-80.027965 5.880649-117.101623 8.693134-12.78402 20.198752-22.755556 33.749813-30.425968l5.113608-2.812484c32.982772-19.17603 68.522347-17.897628 102.52784-1.022722 18.153308 8.948814 32.982772 22.499875 43.209988 40.141823l1.789763 3.068165c7.414732 12.78402-2.301124 24.033958-12.016979 31.704369-11.505618 8.948814-23.011236 19.43171-34.005493 29.147566-25.056679 20.965793-49.601998 42.442946-74.147316 63.408739z m262.83945-177.442197h3.579526c10.994257 0 18.408989 7.414732 18.408989 18.408989 0 15.340824-14.573783 19.17603-27.357803 19.17603-16.619226 0-32.471411 9.971536-43.977029 21.221473-14.318102 14.062422-20.454432 32.21573-20.454432 51.903121v89.48814c0 10.227216-6.39201 18.408989-17.130586 18.408988h-2.812485c-10.738577 0-17.130587-8.181773-17.130587-18.408988v-94.601748c0-36.306617 17.641948-65.965543 47.300874-86.931336 17.897628-12.016979 38.09638-18.664669 59.573533-18.664669z m-460.99176 63.664419c14.318102-14.318102 28.891885-28.636205 43.465668-42.954307 4.090886-3.835206 19.43171-20.710112 25.56804-20.710112h6.64769l0.767042 0.25568c8.437453 1.789763 14.829463 7.159051 14.829463 16.107865v3.579526c0 6.13633-7.159051 13.295381-11.249938 17.641948-8.437453 8.948814-17.386267 17.641948-26.079401 26.590761L746.586767 913.801748c19.17603 19.17603 38.35206 38.60774 57.528089 58.039451 5.369288 5.369288 10.482896 10.738577 15.852185 16.107865 1.789763 2.045443 4.602247 4.346567 6.13633 6.90337 1.534082 2.556804 2.556804 5.369288 2.556804 8.437454v3.835206l-0.255681 0.767041c-2.045443 8.437453-7.414732 15.340824-16.874906 15.340824h-3.068165c-6.13633 0-13.0397-6.903371-17.130587-10.994257-8.693134-8.181773-16.874906-16.619226-25.568039-25.05668l-28.380525-27.869163v44.488389c0 10.227216-6.39201 18.408989-17.130587 18.408989h-2.812484c-10.738577 0-17.130587-8.181773-17.130587-18.408989v-251.078152c0-10.227216 6.39201-18.408989 17.130587-18.408989h2.812484c10.738577 0 17.130587 8.181773 17.130587 18.408989v115.31186z m-119.914107-25.056679c-5.624969-2.556804-16.107865-3.579526-21.988515-3.835206-30.937328-1.278402-53.181523 16.363546-66.476903 43.465668-4.602247 9.460175-6.64769 19.43171-6.647691 29.658926 0 31.70437 16.619226 53.948564 44.99975 67.499626 10.227216 4.857928 23.778277 5.880649 35.028215 5.880649 9.971536 0 24.033958-6.13633 32.727091-10.227216l1.534083-0.767041h6.903371l0.767041 0.25568c8.437453 1.789763 14.829463 7.159051 14.829463 16.107865v3.579526c0 22.499875-41.164544 27.613483-56.761049 28.891885-55.482647 3.835206-96.902871-26.590762-112.755056-79.516604-2.812484-9.204494-4.090886-18.408989-4.090886-27.869164v-7.414731c0-40.141823 19.943071-71.846192 54.204244-92.300624 16.107865-9.460175 33.749813-14.318102 52.158802-14.318103h7.414731c19.687391 0 37.840699 5.624969 54.204245 16.619226l1.278402 1.022722 0.767041 1.278402c1.789763 2.812484 3.323845 6.39201 3.323846 9.715855v3.579526c0 9.460175-7.159051 14.573783-15.596505 16.107865h-3.068165c-5.369288 0.511361-17.897628-5.113608-22.755555-7.414732z m-337.498128 70.31211c0 28.124844 13.806742 48.834956 37.585019 63.408739 11.249938 6.903371 23.522597 9.971536 36.562297 9.971536 27.869164 0 48.323596-14.062422 62.641698-37.585019 6.903371-11.249938 9.971536-23.522597 9.971536-36.562297 0-26.079401-12.52834-46.022472-34.005493-60.596255-11.761298-7.926092-25.056679-12.016979-39.119101-12.016979-30.937328 0-53.181523 15.596504-66.732585 43.465668-4.857928 9.460175-6.903371 19.43171-6.903371 29.914607z m69.80075-110.198252h5.113608c42.954307 0 75.425718 20.710112 96.13583 58.295131 8.181773 15.085144 12.78402 31.193009 12.78402 48.323595v7.414732c0 40.141823-19.687391 72.101873-54.459925 92.300624-16.107865 9.460175-33.749813 14.318102-52.158802 14.318103h-7.414731c-40.141823 0-72.101873-19.943071-92.300625-54.204245-9.460175-16.107865-14.318102-33.749813-14.318102-52.158802v-7.414731c0-40.141823 19.943071-71.846192 54.204245-92.300624 16.107865-9.971536 33.749813-14.573783 52.414482-14.573783z m-311.930088 110.198252c0 28.891885 14.062422 50.624719 39.374782 64.687141 10.227216 5.624969 21.477154 8.693134 33.238452 8.693134 28.380524 0 49.601998-13.295381 64.17578-37.585019 6.64769-11.249938 9.971536-23.522597 9.971535-36.562297 0-25.056679-12.016979-44.74407-32.21573-59.317853-12.272659-8.948814-26.079401-13.295381-41.164544-13.295381-30.937328 0-53.181523 15.596504-66.732584 43.465668-4.602247 9.460175-6.64769 19.43171-6.647691 29.914607z m146.504869-82.584769v-78.238202c0-10.227216 6.39201-18.408989 17.130587-18.408989H204.54432c10.738577 0 17.130587 8.181773 17.130586 18.408989v164.402497c0 40.141823-19.943071 72.101873-54.459925 92.300624-16.107865 9.460175-33.749813 14.318102-52.158801 14.318102h-7.670412c-40.141823 0-72.101873-19.943071-92.300624-54.204244-9.460175-16.107865-14.318102-33.749813-14.318103-52.158802v-7.414732c0-40.141823 19.943071-72.101873 54.204245-92.300624 16.107865-9.460175 33.749813-14.318102 52.158801-14.318102h7.414732c27.357803 0 50.369039 10.482896 69.800749 27.613483zM704.14382 218.351061h109.175531V329.827715h55.226966c25.56804 0 51.647441-4.602247 75.937079-12.78402 11.761298-4.090886 25.056679-9.715855 36.817977-16.619226-15.340824-20.198752-23.266916-45.511111-25.56804-70.56779-3.068165-34.005493 3.835206-78.493883 26.846442-105.084644l11.505618-13.295381 13.551061 10.994257c34.516854 27.613483 63.408739 66.221223 68.522347 110.453933 41.420225-12.272659 89.999501-9.204494 126.561798 11.761298l15.085144 8.693134-7.926093 15.340824c-30.937328 60.340574-95.624469 79.005243-158.777528 75.681398-94.601748 235.481648-300.168789 346.958302-549.712859 346.958302-128.862921 0-247.242946-48.067915-314.486891-162.612734l-1.022722-1.789763-9.715855-19.943071C153.40824 456.645194 145.737828 401.418227 150.851436 346.446941l1.534082-16.619226h93.323346V218.351061h109.175531V109.175531h218.351061V0h130.908364v218.351061z" fill="#394D54" p-id="3257"></path><path d="M1057.749813 259.515605c7.414732-56.761049-35.283895-101.505119-61.618977-122.726591-30.425968 35.283895-35.028215 127.328839 12.52834 166.192259-26.590762 23.778277-82.840449 44.99975-140.112859 44.999751H168.749064c-5.624969 60.084894 4.857928 115.31186 28.891885 162.612734l7.926092 14.573783c5.113608 8.437453 10.482896 16.874906 16.619226 24.800998 28.636205 1.789763 55.226966 2.556804 79.516604 2.045444 47.556554-1.022722 86.675655-6.64769 116.078902-16.874907 4.346567-1.534082 9.204494 0.767041 10.738577 5.113608 1.534082 4.346567-0.767041 9.204494-5.113608 10.738577-3.835206 1.278402-7.926092 2.556804-12.27266 3.835206-23.266916 6.64769-48.067915 10.994257-80.283645 13.0397 1.789763 0-2.045443 0.25568-2.045443 0.255681-1.022722 0-2.556804 0.25568-3.579526 0.25568-12.52834 0.767041-26.335081 0.767041-40.141823 0.767041-15.340824 0-30.170287-0.25568-47.045193-1.022721l-0.511361 0.25568c58.295131 65.454182 149.317353 104.828964 263.606492 104.828964 241.873658 0 446.929338-107.130087 537.69588-347.725343 64.431461 6.64769 126.306117-9.715855 154.430961-64.687142-44.48839-26.079401-102.27216-17.897628-135.510611-1.278402z" fill="#00AADA" p-id="3258"></path><path d="M1057.749813 259.515605c7.414732-56.761049-35.283895-101.505119-61.618977-122.726591-30.425968 35.283895-35.028215 127.328839 12.52834 166.192259-26.590762 23.778277-82.840449 44.99975-140.112859 44.999751H210.169288c-2.812484 91.789263 31.193009 161.590012 91.533583 203.777278 47.556554-1.022722 86.675655-6.64769 116.078902-16.874906 4.346567-1.534082 9.204494 0.767041 10.738577 5.113608 1.534082 4.346567-0.767041 9.204494-5.113608 10.738577-3.835206 1.278402-7.926092 2.556804-12.27266 3.835206-23.266916 6.64769-50.369039 11.761298-82.329088 13.551061l-0.767041-0.767042c82.329089 42.187266 201.731835 42.187266 338.520848-10.482896 153.40824-58.806492 296.077903-171.305868 395.793259-299.657428-1.789763 1.022722-3.068165 1.789763-4.602247 2.301123z" fill="#24B8EB" p-id="3259"></path><path d="M170.283146 421.105618c4.346567 32.21573 13.806742 62.130337 27.613483 89.74382l7.926093 14.573783c5.113608 8.437453 10.482896 16.874906 16.619226 24.800999 28.891885 1.789763 55.226966 2.556804 79.516604 2.045443 47.556554-1.022722 86.675655-6.64769 116.078901-16.874906 4.346567-1.534082 9.204494 0.767041 10.738577 5.113608 1.534082 4.346567-0.767041 9.204494-5.113608 10.738576-3.835206 1.278402-7.926092 2.556804-12.272659 3.835206-23.266916 6.64769-50.113358 11.249938-82.329089 13.295381-1.022722 0-3.068165 0-4.090886 0.25568-12.52834 0.767041-26.079401 1.022722-40.141823 1.022722-15.340824 0-30.937328-0.25568-47.556554-1.022722 58.295131 65.454182 150.084395 104.828964 264.373533 104.828964 207.101124 0 387.100125-78.493883 491.673408-252.100874H170.283146z" fill="#008BB8" p-id="3260"></path><path d="M216.561298 421.105618c12.272659 56.505368 42.187266 100.738077 85.397254 130.908365 47.556554-1.022722 86.675655-6.64769 116.078901-16.874907 4.346567-1.534082 9.204494 0.767041 10.738577 5.113608 1.534082 4.346567-0.767041 9.204494-5.113608 10.738577-3.835206 1.278402-7.926092 2.556804-12.272659 3.835206-23.266916 6.64769-50.624719 11.249938-82.84045 13.295381 82.329089 42.187266 201.220474 41.675905 338.009488-10.994257 82.840449-31.70437 162.357054-79.005243 233.947566-136.021973H216.561298z" fill="#039BC6" p-id="3261"></path><path d="M343.123096 244.430462h7.414732v78.749563h-7.414732V244.430462z m-14.318102 0h7.670412v78.749563h-7.670412V244.430462z m-14.318103 0h7.670412v78.749563h-7.670412V244.430462z m-14.318102 0h7.670412v78.749563h-7.670412V244.430462z m-14.318102 0h7.670412v78.749563h-7.670412V244.430462z m-14.062422 0h7.414731v78.749563h-7.414731V244.430462z m-7.926093-7.926092h94.601748v94.601747h-94.601748v-94.601747zM452.298627 135.254931h7.414731v78.749563h-7.414731V135.254931z m-14.318103 0h7.670412v78.749563h-7.670412V135.254931z m-14.318102 0h7.670412v78.749563h-7.670412V135.254931z m-14.318102 0h7.670412v78.749563h-7.670412V135.254931z m-14.318103 0h7.670412v78.749563h-7.670412V135.254931z m-14.062422 0h7.414732v78.749563H380.963795V135.254931z m-7.926092-7.926092h94.601748v94.601748h-94.601748v-94.601748z" fill="#00ACD3" p-id="3262"></path><path d="M452.298627 244.430462h7.414731v78.749563h-7.414731V244.430462z m-14.318103 0h7.670412v78.749563h-7.670412V244.430462z m-14.318102 0h7.670412v78.749563h-7.670412V244.430462z m-14.318102 0h7.670412v78.749563h-7.670412V244.430462z m-14.318103 0h7.670412v78.749563h-7.670412V244.430462z m-14.062422 0h7.414732v78.749563H380.963795V244.430462z m-7.926092-7.926092h94.601748v94.601747h-94.601748v-94.601747z" fill="#20C2EF" p-id="3263"></path><path d="M561.474157 244.430462h7.414732v78.749563h-7.414732V244.430462z m-14.318102 0h7.670412v78.749563h-7.670412V244.430462z m-14.318102 0h7.670412v78.749563h-7.670412V244.430462z m-14.318103 0h7.670412v78.749563h-7.670412V244.430462z m-14.573783 0h7.670412v78.749563h-7.670412V244.430462z m-13.806741 0h7.414731v78.749563h-7.414731V244.430462z m-7.926093-7.926092h94.601748v94.601747h-94.601748v-94.601747z" fill="#00ACD3" p-id="3264"></path><path d="M561.474157 135.254931h7.414732v78.749563h-7.414732V135.254931z m-14.318102 0h7.670412v78.749563h-7.670412V135.254931z m-14.318102 0h7.670412v78.749563h-7.670412V135.254931z m-14.318103 0h7.670412v78.749563h-7.670412V135.254931z m-14.573783 0h7.670412v78.749563h-7.670412V135.254931z m-13.806741 0h7.414731v78.749563h-7.414731V135.254931z m-7.926093-7.926092h94.601748v94.601748h-94.601748v-94.601748zM670.649688 244.430462h7.414731v78.749563h-7.414731V244.430462z m-14.318102 0h7.670412v78.749563h-7.670412V244.430462z m-14.318103 0h7.670412v78.749563h-7.670412V244.430462z m-14.573783 0h7.670412v78.749563h-7.670412V244.430462z m-14.318102 0h7.670412v78.749563h-7.670412V244.430462z m-13.806742 0h7.414732v78.749563h-7.414732V244.430462z m-7.926092-7.926092h94.601748v94.601747h-94.601748v-94.601747z" fill="#20C2EF" p-id="3265"></path><path d="M670.649688 135.254931h7.414731v78.749563h-7.414731V135.254931z m-14.318102 0h7.670412v78.749563h-7.670412V135.254931z m-14.318103 0h7.670412v78.749563h-7.670412V135.254931z m-14.573783 0h7.670412v78.749563h-7.670412V135.254931z m-14.318102 0h7.670412v78.749563h-7.670412V135.254931z m-13.806742 0h7.414732v78.749563h-7.414732V135.254931z m-7.926092-7.926092h94.601748v94.601748h-94.601748v-94.601748z" fill="#00ACD3" p-id="3266"></path><path d="M670.649688 26.079401h7.414731V104.828964h-7.414731V26.079401z m-14.318102 0h7.670412V104.828964h-7.670412V26.079401z m-14.318103 0h7.670412V104.828964h-7.670412V26.079401z m-14.573783 0h7.670412V104.828964h-7.670412V26.079401z m-14.318102 0h7.670412V104.828964h-7.670412V26.079401z m-13.806742 0h7.414732V104.828964h-7.414732V26.079401z m-7.926092-7.926093h94.601748v94.601748h-94.601748v-94.601748z" fill="#20C2EF" p-id="3267"></path><path d="M779.825218 244.430462h7.414732v78.749563H779.825218V244.430462z m-14.318102 0h7.670412v78.749563h-7.670412V244.430462z m-14.573783 0h7.670412v78.749563h-7.670412V244.430462z m-14.318102 0h7.670412v78.749563h-7.670412V244.430462z m-14.318102 0h7.670412v78.749563h-7.670412V244.430462z m-14.062422 0h7.414731v78.749563H708.234707V244.430462z m-7.670412-7.926092h94.601747v94.601747h-94.601747v-94.601747z" fill="#00ACD3" p-id="3268"></path><path d="M461.758801 484.514357c14.318102 0 26.079401 11.761298 26.079401 26.079401s-11.761298 26.079401-26.079401 26.079401-26.079401-11.761298-26.0794-26.079401 11.505618-26.079401 26.0794-26.079401" fill="#D4EDF1" p-id="3269"></path><path d="M461.758801 491.929089c2.301124 0 4.602247 0.511361 6.647691 1.278402-2.301124 1.278402-3.835206 3.835206-3.835206 6.64769 0 4.090886 3.323845 7.670412 7.670412 7.670412 2.812484 0 5.369288-1.534082 6.64769-4.090886 1.022722 2.301124 1.534082 4.602247 1.534083 7.159051 0 10.227216-8.437453 18.664669-18.66467 18.664669s-18.664669-8.437453-18.664669-18.664669 8.181773-18.664669 18.664669-18.664669M0 430.310112h1214.226217c-26.335081-6.64769-83.607491-15.852185-74.147316-50.369038-48.067915 55.738327-163.891136 39.119101-193.294382 11.505618-32.471411 47.300874-222.186267 29.403246-235.481648-7.414732-40.908864 47.812235-167.470662 47.812235-208.379525 0-13.295381 36.817978-203.010237 54.715605-235.481648 7.414732-29.147566 27.357803-145.226467 43.977029-193.294382-11.505618 9.460175 34.772534-47.812235 43.721348-74.147316 50.369038" fill="#394D54" p-id="3270"></path><path d="M531.04819 672.695131c-64.687141-30.681648-100.226717-72.357553-119.914108-117.868664-24.033958 6.903371-52.925843 11.249938-86.419975 13.0397-12.52834 0.767041-25.82372 1.022722-39.886142 1.022722-16.107865 0-32.982772-0.511361-50.880399-1.534083 59.317853 59.317853 132.186767 104.828964 267.186017 105.596005 10.227216 0.25568 19.943071 0 29.914607-0.25568z" fill="#BFDBE0" p-id="3271"></path><path d="M435.16804 596.758052c-8.948814-12.016979-17.641948-27.357803-24.033958-41.931585-24.033958 6.903371-52.925843 11.249938-86.419975 13.0397 23.011236 12.52834 55.994007 24.033958 110.453933 28.891885z" fill="#D4EDF1" p-id="3272"></path></svg>